<svg width="60" height="61" viewBox="0 0 60 61" fill="none" xmlns="http://www.w3.org/2000/svg">
<path d="M47.9716 45.9479L38.4522 39.076C38.1318 38.8431 37.7458 38.7176 37.3497 38.7176C36.9536 38.7176 36.5676 38.8431 36.2472 39.076L32.1447 42.076C26.1108 39.2385 21.2547 34.3864 18.4122 28.3547L21.4122 24.2522C21.6451 23.9318 21.7706 23.5459 21.7706 23.1497C21.7706 22.7536 21.6451 22.3676 21.4122 22.0472L14.5516 12.5279C14.3927 12.3077 14.1879 12.1246 13.9513 11.9913C13.7147 11.8581 13.452 11.7778 13.1813 11.756C12.9106 11.7343 12.6385 11.7716 12.3836 11.8653C12.1288 11.9591 11.8974 12.1071 11.7053 12.2991L6.18722 17.8172C5.18043 18.8169 4.44775 20.0588 4.05962 21.4235C3.67149 22.7882 3.64096 24.2298 3.97097 25.6097C5.71536 33.1405 9.53802 40.0306 15.0042 45.4964C20.4704 50.9623 27.3607 54.7845 34.8916 56.5285C35.5233 56.6776 36.1701 56.7531 36.8191 56.7535C37.9085 56.7536 38.9872 56.5383 39.9931 56.12C40.999 55.7017 41.9123 55.0886 42.6803 54.316L48.1985 48.7979C48.3912 48.6059 48.5399 48.3744 48.6342 48.1192C48.7285 47.8641 48.7662 47.5915 48.7446 47.3204C48.723 47.0492 48.6427 46.786 48.5092 46.549C48.3757 46.312 48.1923 46.1069 47.9716 45.9479Z" fill="#52B1FF"/>
<path d="M34.687 4.25011C31.817 4.24106 28.9746 4.80941 26.3287 5.92135C23.6829 7.03329 21.2877 8.6661 19.2858 10.7226C18.9377 11.0779 18.745 11.5569 18.7501 12.0543C18.7552 12.5517 18.9577 13.0267 19.313 13.3748C19.6683 13.7229 20.1473 13.9156 20.6447 13.9105C21.1421 13.9054 21.6171 13.7029 21.9652 13.3476C23.6116 11.6599 25.5766 10.3159 27.7464 9.39348C29.9162 8.47104 32.2475 7.98854 34.6052 7.97395C36.9629 7.95936 39.3 8.41298 41.481 9.30849C43.662 10.204 45.6436 11.5236 47.3108 13.1908C48.9779 14.8579 50.2975 16.8395 51.193 19.0205C52.0885 21.2015 52.5422 23.5387 52.5276 25.8963C52.513 28.254 52.0305 30.5853 51.108 32.7551C50.1856 34.9249 48.8416 36.89 47.1539 38.5364C46.978 38.7087 46.8377 38.914 46.7411 39.1406C46.6446 39.3672 46.5936 39.6105 46.591 39.8568C46.5885 40.1031 46.6345 40.3475 46.7264 40.576C46.8183 40.8045 46.9544 41.0126 47.1267 41.1885C47.2991 41.3645 47.5044 41.5047 47.731 41.6013C47.9575 41.6979 48.2009 41.7489 48.4472 41.7514C48.9446 41.7565 49.4236 41.5638 49.7789 41.2157C52.839 38.218 54.9369 34.3767 55.8049 30.1817C56.6729 25.9868 56.2717 21.6284 54.6525 17.6624C53.0334 13.6964 50.2695 10.3026 46.7136 7.91383C43.1577 5.52505 38.9708 4.24958 34.687 4.25011Z" fill="#FFA350"/>
<path d="M39.375 17.3762C38.8777 17.3762 38.4008 17.5737 38.0492 17.9254C37.6975 18.277 37.5 18.7539 37.5 19.2512V23.0012C37.5 23.9957 37.8951 24.9496 38.5984 25.6528C39.3016 26.3561 40.2554 26.7512 41.25 26.7512H43.125V30.5012C43.125 30.9985 43.3225 31.4754 43.6742 31.827C44.0258 32.1786 44.5027 32.3762 45 32.3762C45.4973 32.3762 45.9742 32.1786 46.3258 31.827C46.6775 31.4754 46.875 30.9985 46.875 30.5012V19.2512C46.875 18.7539 46.6775 18.277 46.3258 17.9254C45.9742 17.5737 45.4973 17.3762 45 17.3762C44.5027 17.3762 44.0258 17.5737 43.6742 17.9254C43.3225 18.277 43.125 18.7539 43.125 19.2512V23.0012H41.25V19.2512C41.25 18.7539 41.0525 18.277 40.7008 17.9254C40.3492 17.5737 39.8723 17.3762 39.375 17.3762ZM27.1144 27.0474C26.8494 27.217 26.6314 27.4504 26.4804 27.7263C26.3293 28.0022 26.2501 28.3117 26.25 28.6262V30.5012C26.25 30.9985 26.4475 31.4754 26.7992 31.827C27.1508 32.1786 27.6277 32.3762 28.125 32.3762H33.75C34.2473 32.3762 34.7242 32.1786 35.0758 31.827C35.4275 31.4754 35.625 30.9985 35.625 30.5012C35.625 30.0039 35.4275 29.527 35.0758 29.1754C34.7242 28.8237 34.2473 28.6262 33.75 28.6262H31.3125C33.2344 27.0587 35.625 24.5968 35.625 22.0637C35.6391 21.4443 35.5275 20.8284 35.2969 20.2533C35.0663 19.6782 34.7216 19.1558 34.2835 18.7177C33.8453 18.2796 33.323 17.9349 32.7479 17.7043C32.1728 17.4737 31.5569 17.3621 30.9375 17.3762C29.6943 17.3762 28.502 17.87 27.6229 18.7491C26.7439 19.6282 26.25 20.8205 26.25 22.0637C26.25 22.561 26.4475 23.0379 26.7992 23.3895C27.1508 23.7411 27.6277 23.9387 28.125 23.9387C28.6223 23.9387 29.0992 23.7411 29.4508 23.3895C29.8025 23.0379 30 22.561 30 22.0637C30 21.815 30.0988 21.5766 30.2746 21.4008C30.4504 21.225 30.6889 21.1262 30.9375 21.1262C31.0648 21.1084 31.1944 21.1204 31.3163 21.1613C31.4381 21.2021 31.5488 21.2706 31.6397 21.3615C31.7306 21.4524 31.7991 21.5631 31.8399 21.6849C31.8808 21.8068 31.8928 21.9364 31.875 22.0637C31.875 23.2018 29.3663 25.6037 27.1144 27.0474Z" fill="#FF5555"/>
</svg>
