<svg width="355" height="100" viewBox="0 0 355 100" fill="none" xmlns="http://www.w3.org/2000/svg">
<path d="M48.6289 18.1377V78.1371H324.36C337.083 78.1371 347.396 64.7068 347.396 48.1374C347.396 31.5679 337.083 18.1377 324.36 18.1377H48.6289Z" fill="url(#paint0_linear_2193_7720)"/>
<path opacity="0.4" d="M56.7559 78.7595C56.7559 78.7595 88.9486 60.3885 170.469 43.4131C242.597 28.3915 341.818 28.5655 341.818 28.5655C341.818 28.5655 337.522 14.3776 318.575 14.3776C299.627 14.3776 75.8083 13.2285 75.8083 13.2285L70.9075 16.3713L56.7559 78.7595Z" fill="url(#paint1_linear_2193_7720)"/>
<path fill-rule="evenodd" clip-rule="evenodd" d="M325.692 12.5H48.6265C46.1362 12.5 44.1063 15.0121 44.0918 18.1041C44.6174 19.0284 45.1249 19.9673 45.6034 20.9351V18.4195C46.0674 19.2423 46.5169 20.0797 46.941 20.9351V18.1367C46.941 16.0669 48.3003 14.3777 49.9641 14.3777H324.358C339.169 14.3777 350.417 30.0518 350.417 48.1364C350.417 66.221 339.169 81.8951 324.358 81.8951H49.9641C48.3003 81.8951 46.941 80.2059 46.941 78.1361V75.3376C46.5169 76.1967 46.0674 77.0305 45.6034 77.8533V75.3376C45.1249 76.3055 44.6174 77.2443 44.0918 78.1687C44.1063 81.2607 46.1326 83.7728 48.6265 83.7728H325.692C341.362 83.7728 353.263 67.2287 353.263 48.1364C353.263 29.044 341.362 12.5 325.692 12.5Z" fill="url(#paint2_linear_2193_7720)"/>
<path fill-rule="evenodd" clip-rule="evenodd" d="M324.352 14.3774H48.6247C46.9609 14.3774 45.6016 16.0666 45.6016 18.1364V22.0694C46.7797 24.5996 47.7983 27.2567 48.6247 30.0297V18.1364H324.356C337.079 18.1364 347.392 31.5667 347.392 48.1361C347.392 64.7055 337.079 78.1358 324.356 78.1358H48.6247V66.2425C47.7983 69.0192 46.7797 71.6762 45.6016 74.2028V78.1358C45.6016 80.2056 46.9609 81.8948 48.6247 81.8948H324.356C339.167 81.8948 350.415 66.2207 350.415 48.1361C350.415 30.0515 339.164 14.3774 324.352 14.3774Z" fill="url(#paint3_linear_2193_7720)"/>
<path d="M99.5859 59.1686L109.325 34.0513H114.039L123.812 59.1686H118.581L116.14 52.6973H107.263L104.822 59.1686H99.5908H99.5859ZM114.551 48.4652C114.069 47.1562 113.591 45.8865 113.124 44.6464C112.651 43.4063 112.179 42.1564 111.697 40.8966C111.239 42.1564 110.767 43.4063 110.284 44.6464C109.802 45.8865 109.32 47.1562 108.838 48.4652H114.551Z" fill="white"/>
<path d="M126.494 34.0493H131.381V41.7557C132.045 41.298 132.783 40.9339 133.6 40.6731C134.412 40.4073 135.278 40.2794 136.199 40.2794C137.552 40.2794 138.792 40.5353 139.914 41.052C141.036 41.5687 142.005 42.2626 142.822 43.1336C143.634 44.0046 144.274 45.0332 144.732 46.2142C145.189 47.3953 145.421 48.6502 145.421 49.9838C145.421 51.3174 145.204 52.5624 144.766 53.7336C144.328 54.9049 143.703 55.9285 142.891 56.8142C142.074 57.7 141.1 58.3988 139.968 58.9156C138.831 59.4323 137.576 59.6882 136.199 59.6882C135.234 59.6882 134.333 59.5504 133.497 59.2748C132.66 58.9992 131.907 58.6203 131.243 58.138V59.1715H126.494V34.0542V34.0493ZM135.849 55.5249C136.582 55.5249 137.242 55.3625 137.827 55.0427C138.413 54.7228 138.905 54.3045 139.309 53.7878C139.707 53.2711 140.012 52.6805 140.219 52.0162C140.426 51.3518 140.529 50.6727 140.529 49.9838C140.529 49.2948 140.426 48.6206 140.219 47.9514C140.012 47.287 139.707 46.6965 139.309 46.1798C138.905 45.663 138.418 45.2448 137.847 44.9249C137.271 44.605 136.607 44.4426 135.849 44.4426C135.091 44.4426 134.427 44.605 133.851 44.9249C133.275 45.2448 132.798 45.663 132.404 46.1798C132.016 46.6965 131.72 47.287 131.528 47.9514C131.332 48.6157 131.238 49.2948 131.238 49.9838C131.238 50.6727 131.341 51.3469 131.548 52.0162C131.755 52.6805 132.05 53.2711 132.444 53.7878C132.833 54.3045 133.315 54.7228 133.891 55.0427C134.461 55.3625 135.116 55.5249 135.854 55.5249H135.849Z" fill="white"/>
<path d="M148.824 34.0493H153.711V41.6868C154.331 41.2538 155.035 40.9093 155.827 40.6534C156.619 40.4024 157.426 40.2745 158.253 40.2745C159.651 40.2745 160.822 40.491 161.762 40.929C162.702 41.3669 163.464 41.9329 164.05 42.6317C164.636 43.3305 165.054 44.1228 165.305 45.0036C165.556 45.8845 165.684 46.7654 165.684 47.6364V59.1616H160.832V48.0498C160.832 46.9475 160.586 46.0715 160.093 45.417C159.601 44.7625 158.77 44.4377 157.598 44.4377C157.047 44.4377 156.531 44.5755 156.048 44.8511C155.566 45.1267 155.153 45.4859 154.808 45.9337C154.464 46.3815 154.193 46.8786 154.001 47.4297C153.804 47.9809 153.711 48.5173 153.711 49.0488V59.1665H148.824V34.0493Z" fill="white"/>
<path d="M169.5 36.5628C169.5 36.2626 169.564 35.9575 169.687 35.6327C169.815 35.3128 170.002 35.0126 170.253 34.737C170.504 34.4615 170.824 34.2351 171.217 34.0481C171.606 33.866 172.054 33.7725 172.561 33.7725C173.068 33.7725 173.54 33.866 173.919 34.0481C174.298 34.2302 174.613 34.4615 174.864 34.737C175.115 35.0126 175.307 35.3128 175.43 35.6327C175.558 35.9525 175.617 36.2626 175.617 36.5628C175.617 36.863 175.553 37.1779 175.43 37.5076C175.302 37.8422 175.115 38.1424 174.864 38.418C174.613 38.6936 174.298 38.9249 173.919 39.107C173.54 39.289 173.087 39.3825 172.561 39.3825C172.034 39.3825 171.611 39.289 171.217 39.107C170.829 38.9249 170.504 38.6887 170.253 38.4033C170.002 38.1178 169.81 37.8078 169.687 37.4732C169.559 37.1385 169.5 36.8383 169.5 36.5628ZM170.155 40.8294H174.972V59.1703H170.155V40.8294Z" fill="white"/>
<path d="M185.279 59.1661L195.018 34.0488H199.733L209.506 59.1661H204.275L201.834 52.6948H192.956L190.515 59.1661H185.284H185.279ZM200.244 48.4627C199.762 47.1537 199.285 45.884 198.817 44.6439C198.345 43.4038 197.872 42.1538 197.39 40.894C196.932 42.1538 196.46 43.4038 195.978 44.6439C195.495 45.884 195.013 47.1537 194.531 48.4627H200.244Z" fill="url(#paint4_linear_2193_7720)"/>
<path d="M215.245 52.0761L215.623 53.0062C215.943 53.764 216.426 54.3841 217.07 54.8664C217.71 55.3486 218.468 55.5898 219.339 55.5898C220.21 55.5898 220.909 55.4471 221.44 55.1616C221.967 54.8762 222.233 54.4776 222.233 53.9756C222.233 53.6558 222.164 53.4048 222.026 53.2178C221.888 53.0357 221.691 52.8733 221.44 52.7355C221.14 52.5534 220.805 52.4107 220.426 52.3074C220.048 52.204 219.629 52.0958 219.172 51.9826L217.105 51.4314C215.52 51.0181 214.226 50.3636 213.217 49.4679C212.208 48.5723 211.701 47.3912 211.701 45.9247C211.701 45.0537 211.908 44.2663 212.321 43.5675C212.735 42.8687 213.286 42.2782 213.975 41.7959C214.664 41.3137 215.461 40.9397 216.367 40.6788C217.272 40.4131 218.207 40.2852 219.172 40.2852C220.894 40.2852 222.424 40.6345 223.763 41.3333C225.106 42.0321 226.061 43.0705 226.637 44.4484L226.947 45.1029L222.715 46.9975L222.267 46.1708C221.947 45.5753 221.539 45.1324 221.047 44.847C220.554 44.5616 219.915 44.4189 219.137 44.4189C218.404 44.4189 217.799 44.5616 217.331 44.847C216.859 45.1324 216.627 45.472 216.627 45.8608C216.627 46.343 216.844 46.6973 217.282 46.9286C217.513 47.0418 217.808 47.1698 218.178 47.3076C218.547 47.4453 218.98 47.5733 219.487 47.6865C220.313 47.8932 221.179 48.1245 222.085 48.3754C222.99 48.6264 223.817 48.9758 224.56 49.4236C225.303 49.8714 225.923 50.4423 226.42 51.146C226.912 51.8448 227.159 52.7257 227.159 53.7788C227.159 54.6941 226.947 55.5209 226.524 56.2541C226.101 56.9874 225.53 57.6123 224.821 58.129C224.107 58.6458 223.286 59.0345 222.346 59.3003C221.406 59.566 220.407 59.694 219.354 59.694C217.267 59.694 215.515 59.2363 214.108 58.3161C212.695 57.4007 211.716 56.1803 211.165 54.6695L210.924 54.015L215.259 52.0859L215.245 52.0761Z" fill="url(#paint5_linear_2193_7720)"/>
<path d="M233.42 52.0771L233.799 53.0072C234.119 53.765 234.601 54.3851 235.246 54.8673C235.886 55.3496 236.644 55.5907 237.515 55.5907C238.386 55.5907 239.085 55.448 239.616 55.1626C240.143 54.8772 240.408 54.4786 240.408 53.9766C240.408 53.6567 240.339 53.4058 240.202 53.2188C240.064 53.0367 239.867 52.8743 239.616 52.7365C239.316 52.5544 238.981 52.4117 238.602 52.3084C238.223 52.205 237.805 52.0968 237.347 51.9836L235.28 51.4324C233.696 51.019 232.402 50.3645 231.393 49.4689C230.384 48.5733 229.877 47.3922 229.877 45.9257C229.877 45.0547 230.084 44.2673 230.497 43.5685C230.911 42.8697 231.462 42.2792 232.151 41.7969C232.84 41.3146 233.637 40.9406 234.542 40.6798C235.448 40.4141 236.383 40.2861 237.347 40.2861C239.07 40.2861 240.6 40.6355 241.939 41.3343C243.282 42.0331 244.237 43.0715 244.813 44.4494L245.123 45.1039L240.891 46.9985L240.443 46.1718C240.123 45.5763 239.714 45.1334 239.222 44.848C238.73 44.5626 238.09 44.4199 237.313 44.4199C236.58 44.4199 235.974 44.5626 235.507 44.848C235.034 45.1334 234.803 45.473 234.803 45.8617C234.803 46.344 235.02 46.6983 235.458 46.9296C235.689 47.0428 235.984 47.1707 236.353 47.3085C236.722 47.4463 237.155 47.5743 237.662 47.6875C238.489 47.8941 239.355 48.1254 240.261 48.3764C241.166 48.6274 241.993 48.9768 242.736 49.4246C243.479 49.8724 244.099 50.4433 244.596 51.147C245.088 51.8458 245.334 52.7267 245.334 53.7798C245.334 54.6951 245.123 55.5218 244.699 56.2551C244.276 56.9883 243.705 57.6133 242.997 58.13C242.283 58.6467 241.461 59.0355 240.521 59.3012C239.582 59.567 238.583 59.6949 237.529 59.6949C235.443 59.6949 233.691 59.2373 232.284 58.317C230.871 57.4017 229.892 56.1813 229.341 54.6705L229.1 54.016L233.435 52.0869L233.42 52.0771Z" fill="url(#paint6_linear_2193_7720)"/>
<path d="M253.27 40.8262V51.7362C253.27 52.8582 253.492 53.7736 253.94 54.4724C254.388 55.1712 255.185 55.5206 256.331 55.5206C256.927 55.5206 257.473 55.3926 257.965 55.1416C258.457 54.8907 258.876 54.5511 259.22 54.1279C259.565 53.7047 259.825 53.2273 260.012 52.7008C260.194 52.1742 260.288 51.6329 260.288 51.0817V40.8262H265.14V59.1671H260.426V58.2025C259.761 58.6602 259.033 59.0244 258.241 59.2852C257.449 59.5509 256.617 59.6789 255.746 59.6789C254.299 59.6789 253.103 59.4476 252.149 58.9899C251.199 58.5323 250.446 57.9368 249.895 57.1986C249.343 56.4654 248.955 55.6485 248.723 54.7578C248.492 53.8621 248.379 52.9911 248.379 52.1447V40.8262H253.266H253.27Z" fill="url(#paint7_linear_2193_7720)"/>
<path d="M269.478 59.1701V40.8292H274.226V41.6904C274.778 41.3016 275.403 40.9719 276.101 40.7111C276.8 40.4454 277.538 40.3174 278.321 40.3174C278.71 40.3174 279.118 40.347 279.541 40.4011C279.964 40.4601 280.373 40.5782 280.762 40.7603L281.347 40.9326V45.9226L279.832 45.1647C279.143 44.9137 278.503 44.7858 277.902 44.7858C277.396 44.7858 276.928 44.9137 276.49 45.1647C276.052 45.4157 275.673 45.7454 275.353 46.144C275.033 46.5475 274.787 47.0003 274.615 47.5022C274.443 48.0091 274.359 48.511 274.359 49.0179V59.1701H269.473H269.478Z" fill="url(#paint8_linear_2193_7720)"/>
<path d="M283.236 50.0171C283.236 48.9837 283.409 47.901 283.753 46.7643C284.097 45.6275 284.644 44.5793 285.387 43.6148C286.13 42.6502 287.09 41.853 288.261 41.2231C289.432 40.5932 290.854 40.2783 292.527 40.2783C294.2 40.2783 295.657 40.5686 296.828 41.1542C298 41.7398 298.949 42.4829 299.683 43.3884C300.416 44.2939 300.942 45.3027 301.267 46.4149C301.587 47.5271 301.749 48.6097 301.749 49.6677C301.749 49.8498 301.74 50.022 301.715 50.1844C301.69 50.3468 301.656 50.5043 301.612 50.6667L301.439 51.3212H288.192C288.423 52.5613 288.945 53.5702 289.757 54.3477C290.569 55.1301 291.607 55.5189 292.872 55.5189C293.856 55.5189 294.678 55.2975 295.332 54.8496C295.987 54.4018 296.553 53.7768 297.035 52.9747L297.517 52.1824L301.646 54.1459L301.267 54.8004C300.854 55.514 300.376 56.1636 299.84 56.7639C299.299 57.3594 298.684 57.8761 297.98 58.3141C297.281 58.7521 296.499 59.0867 295.642 59.3278C294.781 59.569 293.826 59.6871 292.768 59.6871C291.095 59.6871 289.653 59.382 288.448 58.7767C287.242 58.1714 286.258 57.3938 285.49 56.4539C284.722 55.514 284.152 54.4707 283.787 53.3241C283.418 52.1775 283.236 51.0752 283.236 50.022V50.0171ZM288.536 47.3991H296.587C296.356 46.5281 295.893 45.8145 295.195 45.2633C294.496 44.7122 293.595 44.4366 292.493 44.4366C291.509 44.4366 290.682 44.722 290.018 45.2978C289.353 45.8736 288.861 46.5724 288.536 47.3991Z" fill="url(#paint9_linear_2193_7720)"/>
<path d="M304.232 49.9819C304.232 48.6729 304.449 47.4278 304.887 46.2467C305.32 45.0657 305.94 44.0323 306.747 43.1514C307.549 42.2705 308.519 41.5668 309.655 41.0501C310.792 40.5334 312.047 40.2775 313.425 40.2775C314.34 40.2775 315.216 40.4103 316.038 40.6712C316.865 40.9369 317.608 41.2961 318.272 41.7538V34.0474H323.159V59.1646H318.41V58.1312C317.746 58.6135 316.988 58.9924 316.141 59.268C315.295 59.5435 314.385 59.6813 313.425 59.6813C312.027 59.6813 310.763 59.4254 309.641 58.9087C308.519 58.392 307.554 57.6932 306.752 56.8074C305.95 55.9265 305.33 54.898 304.892 53.7268C304.454 52.5556 304.237 51.3056 304.237 49.9769L304.232 49.9819ZM309.085 49.9819C309.085 50.6462 309.188 51.3106 309.395 51.9798C309.601 52.6442 309.906 53.2396 310.305 53.7711C310.704 54.2977 311.196 54.7209 311.767 55.0457C312.337 55.3655 312.992 55.5279 313.73 55.5279C314.468 55.5279 315.152 55.3655 315.728 55.0457C316.299 54.7258 316.791 54.3026 317.19 53.7711C317.588 53.2445 317.893 52.654 318.1 51.9995C318.307 51.345 318.41 50.6757 318.41 49.9868C318.41 49.2978 318.307 48.6581 318.1 47.9888C317.893 47.3245 317.588 46.729 317.19 46.1975C316.786 45.671 316.294 45.2478 315.708 44.923C315.123 44.6031 314.463 44.4407 313.73 44.4407C312.997 44.4407 312.342 44.6031 311.767 44.923C311.191 45.2429 310.704 45.671 310.305 46.1975C309.901 46.7241 309.601 47.3146 309.395 47.9691C309.188 48.6236 309.085 49.2929 309.085 49.9819Z" fill="url(#paint10_linear_2193_7720)"/>
<path d="M81.9422 30.4627C81.9422 23.5607 81.9422 16.6586 81.9422 9.75971C81.9422 7.58438 81.7806 7.37306 79.6768 6.76086C67.9983 3.36112 56.0464 1.8011 43.8894 1.69544C35.4584 1.62086 27.0834 2.30453 18.783 3.78687C14.2458 4.59796 9.75842 5.61415 5.35493 6.97218C4.09634 7.36063 3.80733 7.75841 3.76382 9.04807C3.75761 9.25939 3.76382 9.4676 3.76382 9.67892C3.76382 23.3183 3.75139 36.9576 3.77004 50.597C3.77626 54.3696 4.50033 58.0273 5.82418 61.5731C8.22326 67.9965 12.2352 73.3634 17.0644 78.2051C24.1964 85.3557 32.4751 90.9339 41.4965 95.499C42.4537 95.9838 43.3269 95.9527 44.2716 95.471C50.5615 92.2733 56.5436 88.6094 62.0068 84.1655C67.3986 79.7806 72.3366 74.97 76.0937 69.1028C79.9036 63.1549 82.0261 56.7221 81.9578 49.6243C81.8956 43.2381 81.9453 36.852 81.9453 30.4658L81.9422 30.4627ZM69.2631 67.549C65.3568 72.9066 60.4717 77.2945 55.167 81.2599C51.4689 84.0225 47.5378 86.4309 43.4668 88.6218C43.0597 88.8425 42.7365 88.8984 42.2921 88.6591C34.7779 84.6254 27.8572 79.8055 21.8284 73.7985C18.0962 70.0786 14.8891 65.9859 12.7107 61.1753C11.1133 57.645 10.2774 53.9563 10.2743 50.0935C10.2743 43.4277 10.3023 36.7587 10.3054 30.0929C10.3054 24.5489 10.2836 19.0049 10.2743 13.4609C10.2743 12.2738 10.3644 12.1619 11.5204 11.8822C20.3896 9.75039 29.3768 8.49491 38.5101 8.2028C43.821 8.03188 49.1444 8.17172 54.4367 8.63475C59.7507 9.09779 65.0368 9.88713 70.2545 10.9997C71.7088 11.3104 73.2875 11.5497 74.2011 12.8704C74.919 13.9115 75.0184 15.2136 75.1769 16.4287C75.5374 19.1665 75.4193 21.9198 75.4193 24.6732C75.4131 27.4079 75.4069 30.1457 75.4069 32.8804C75.4069 32.9332 75.4069 32.9892 75.4069 33.042C75.4069 38.2815 75.3323 43.524 75.4628 48.7604C75.6369 55.7618 73.3621 61.9336 69.2693 67.5459L69.2631 67.549Z" fill="url(#paint11_linear_2193_7720)"/>
<path d="M43.3291 90.2098C40.4763 88.7493 33.4189 85.0605 26.8587 79.8987C21.6846 75.8278 17.5887 71.62 14.6831 67.3937C11.2367 62.3811 9.49023 57.3405 9.49023 52.4087V11.4938C14.0336 10.3999 18.7883 9.52668 23.6361 8.89583C29.9508 8.07542 36.483 7.66211 43.0557 7.66211C49.6283 7.66211 56.1605 8.07853 62.4752 8.89583C67.32 9.52357 72.0777 10.3968 76.6211 11.4938V52.4118C76.6211 57.3405 74.8746 62.3842 71.4282 67.3968C68.5226 71.6232 64.4268 75.8309 59.2526 79.9019C52.6955 85.0636 46.1819 88.7524 43.3291 90.2129V90.2098Z" fill="url(#paint12_linear_2193_7720)"/>
<path d="M80.6366 30.9379C80.6366 24.2285 80.6366 17.5161 80.6366 10.8067C80.6366 8.69349 80.4813 8.48528 78.4458 7.89172C67.1527 4.58521 55.5954 3.06869 43.8424 2.96614C35.688 2.89466 27.5927 3.55969 19.5657 5.00163C15.1777 5.79097 10.8395 6.77919 6.58206 8.09993C5.36387 8.47906 5.08419 8.86441 5.04379 10.1199C5.03757 10.325 5.04379 10.5301 5.04379 10.7352C5.04379 23.9986 5.03447 37.2588 5.05 50.5221C5.05622 54.1922 5.75544 57.7474 7.03578 61.1937C9.35717 67.44 13.2355 72.6577 17.9031 77.3658C24.7989 84.3206 32.8042 89.7434 41.5272 94.1842C42.4533 94.6566 43.2955 94.6255 44.2122 94.1594C50.2938 91.0486 56.0771 87.4873 61.3601 83.1646C66.5747 78.9009 71.348 74.224 74.9839 68.5184C78.6664 62.7351 80.7205 56.4794 80.6553 49.5774C80.5962 43.3684 80.6428 37.1562 80.6428 30.9472L80.6366 30.9379ZM74.2163 49.335C73.8185 56.5323 72.33 61.5418 68.374 66.9987C64.5982 72.2071 59.8746 76.477 54.7439 80.3304C51.1671 83.0154 47.3665 85.3586 43.4291 87.4904C43.0344 87.7048 42.7237 87.7608 42.2948 87.5277C35.0292 83.6059 28.3354 78.9196 22.5086 73.0773C18.9007 69.46 15.7993 65.4822 13.6923 60.8021C12.1478 57.3713 11.3367 53.782 11.3367 50.0249C11.3367 43.5424 11.3647 37.0599 11.3647 30.5774C11.3647 25.1857 11.3429 19.794 11.3336 14.4053C11.3336 13.2524 11.4206 13.1405 12.5363 12.8702C21.1102 10.7943 29.8022 9.57605 38.634 9.29326C49.5107 8.94521 60.2475 9.94275 70.8538 12.3481C71.031 12.3885 71.2019 12.4475 71.4971 12.5345C70.0769 14.0666 68.7376 15.5023 67.4106 16.9474C63.206 21.5249 58.9703 26.0745 54.8092 30.6893C50.1198 35.8852 45.8468 41.6965 41.7199 47.3368C41.5335 47.5885 41.375 47.8154 41.2041 48.0858C41.03 47.921 40.8995 47.7998 40.8964 47.7936C40.8063 47.688 40.4147 47.228 39.7155 46.5319C38.9168 45.7333 30.9458 36.6715 30.1192 36.3265C29.4604 36.0499 28.5778 36.3762 28.121 36.7243C27.8133 36.9574 26.8189 37.7871 26.2098 38.2936C25.899 38.5764 25.5883 38.8592 25.2775 39.142L23.935 40.4721C23.2824 41.1185 22.9406 42.0414 23.1084 42.9426C23.183 43.3528 23.3632 43.7724 23.7237 44.1297C24.9232 45.3293 38.9168 61.3304 39.3177 61.7251C39.3177 61.7251 40.7037 63.0645 42.1177 62.126C43.2458 61.3739 70.5182 23.4019 74.3344 18.0848C74.3406 18.1811 74.3406 18.2743 74.3406 18.3644C74.3313 23.3926 74.3095 28.4176 74.3095 33.4457C74.3561 38.5391 74.1977 44.2416 74.2194 49.335H74.2163Z" fill="url(#paint13_linear_2193_7720)"/>
<path d="M27.5368 38.1296L24.3297 41.3025C23.7703 41.8557 23.761 42.7538 24.311 43.3163C27.2073 46.2685 35.7937 54.5565 40.4893 54.1339C46.5025 53.5932 48.1807 47.294 62.6218 25.6774C65.5336 21.3174 68.8339 16.541 70.4685 14.2134C65.1451 19.8724 58.9827 26.7651 53.6625 32.4241C51.0179 35.569 48.3516 38.8568 45.679 42.2939C44.06 44.376 42.4937 46.4425 40.9803 48.4874C40.9337 48.5495 40.8405 48.5557 40.7876 48.4998L31.0639 38.1607C30.1036 37.1787 28.5157 37.1632 27.5368 38.1296Z" fill="url(#paint14_linear_2193_7720)"/>
<path d="M74.0681 20.9192L73.9407 13.666C69.82 12.684 65.4662 11.6958 61.0875 11.1208C55.1271 10.3377 49.3004 9.84668 43.0944 9.84668C36.8885 9.84668 30.4185 10.3377 24.4581 11.1208C20.2907 11.6678 16.3192 12.5752 12.3818 13.492C12.0307 13.5728 11.7852 13.8835 11.7852 14.2409V49.9071C11.7852 53.7139 12.3259 57.0142 14.5168 60.9049C27.8298 42.8869 48.9554 27.8771 74.0681 20.9223V20.9192Z" fill="url(#paint15_linear_2193_7720)"/>
<defs>
<linearGradient id="paint0_linear_2193_7720" x1="48.6289" y1="48.1374" x2="298.794" y2="48.1374" gradientUnits="userSpaceOnUse">
<stop offset="0.2" stop-color="#1790CC"/>
<stop offset="0.4" stop-color="#1283BD"/>
<stop offset="0.78" stop-color="#056398"/>
<stop offset="0.94" stop-color="#005487"/>
</linearGradient>
<linearGradient id="paint1_linear_2193_7720" x1="72.3466" y1="12.4093" x2="341.668" y2="79.1667" gradientUnits="userSpaceOnUse">
<stop stop-color="white"/>
<stop offset="1" stop-color="white" stop-opacity="0"/>
</linearGradient>
<linearGradient id="paint2_linear_2193_7720" x1="33.1845" y1="-24.3145" x2="232.489" y2="85.056" gradientUnits="userSpaceOnUse">
<stop stop-color="#FFF287"/>
<stop offset="0.09" stop-color="#FFF3B3"/>
<stop offset="0.14" stop-color="#FBEDAB"/>
<stop offset="0.22" stop-color="#F2DD96"/>
<stop offset="0.31" stop-color="#E2C373"/>
<stop offset="0.41" stop-color="#D0A44A"/>
<stop offset="0.76" stop-color="#B38338"/>
<stop offset="1" stop-color="#9E6B2B"/>
</linearGradient>
<linearGradient id="paint3_linear_2193_7720" x1="45.6016" y1="48.1361" x2="301.813" y2="48.1361" gradientUnits="userSpaceOnUse">
<stop stop-color="#FFF287"/>
<stop offset="0.23" stop-color="#FFF3B3"/>
<stop offset="0.33" stop-color="#FBEDAB"/>
<stop offset="0.48" stop-color="#F2DD96"/>
<stop offset="0.66" stop-color="#E2C373"/>
<stop offset="0.84" stop-color="#D0A44A"/>
<stop offset="0.93" stop-color="#B38338"/>
<stop offset="1" stop-color="#9E6B2B"/>
</linearGradient>
<linearGradient id="paint4_linear_2193_7720" x1="184.521" y1="27.8138" x2="211.341" y2="90.9514" gradientUnits="userSpaceOnUse">
<stop stop-color="#FFF287"/>
<stop offset="0.23" stop-color="#FFF3B3"/>
<stop offset="0.33" stop-color="#FBEDAB"/>
<stop offset="0.48" stop-color="#F2DD96"/>
<stop offset="0.66" stop-color="#E2C373"/>
<stop offset="0.84" stop-color="#D0A44A"/>
</linearGradient>
<linearGradient id="paint5_linear_2193_7720" x1="210.683" y1="31.4862" x2="231.509" y2="77.3459" gradientUnits="userSpaceOnUse">
<stop stop-color="#FFF287"/>
<stop offset="0.23" stop-color="#FFF3B3"/>
<stop offset="0.33" stop-color="#FBEDAB"/>
<stop offset="0.48" stop-color="#F2DD96"/>
<stop offset="0.66" stop-color="#E2C373"/>
<stop offset="0.84" stop-color="#D0A44A"/>
</linearGradient>
<linearGradient id="paint6_linear_2193_7720" x1="231.777" y1="37.5795" x2="248.09" y2="74.4779" gradientUnits="userSpaceOnUse">
<stop stop-color="#FFF287"/>
<stop offset="0.23" stop-color="#FFF3B3"/>
<stop offset="0.33" stop-color="#FBEDAB"/>
<stop offset="0.48" stop-color="#F2DD96"/>
<stop offset="0.66" stop-color="#E2C373"/>
<stop offset="0.84" stop-color="#D0A44A"/>
</linearGradient>
<linearGradient id="paint7_linear_2193_7720" x1="250.682" y1="34.7486" x2="268.506" y2="72.3654" gradientUnits="userSpaceOnUse">
<stop stop-color="#FFF287"/>
<stop offset="0.23" stop-color="#FFF3B3"/>
<stop offset="0.33" stop-color="#FBEDAB"/>
<stop offset="0.48" stop-color="#F2DD96"/>
<stop offset="0.66" stop-color="#E2C373"/>
<stop offset="0.84" stop-color="#D0A44A"/>
</linearGradient>
<linearGradient id="paint8_linear_2193_7720" x1="270.683" y1="37.5567" x2="282.976" y2="70.0064" gradientUnits="userSpaceOnUse">
<stop stop-color="#FFF287"/>
<stop offset="0.23" stop-color="#FFF3B3"/>
<stop offset="0.33" stop-color="#FBEDAB"/>
<stop offset="0.48" stop-color="#F2DD96"/>
<stop offset="0.66" stop-color="#E2C373"/>
<stop offset="0.84" stop-color="#D0A44A"/>
</linearGradient>
<linearGradient id="paint9_linear_2193_7720" x1="288.467" y1="38.8413" x2="299.899" y2="69.8393" gradientUnits="userSpaceOnUse">
<stop stop-color="#FFF287"/>
<stop offset="0.23" stop-color="#FFF3B3"/>
<stop offset="0.33" stop-color="#FBEDAB"/>
<stop offset="0.48" stop-color="#F2DD96"/>
<stop offset="0.66" stop-color="#E2C373"/>
<stop offset="0.84" stop-color="#D0A44A"/>
</linearGradient>
<linearGradient id="paint10_linear_2193_7720" x1="310.079" y1="35.0857" x2="325.984" y2="70.68" gradientUnits="userSpaceOnUse">
<stop stop-color="#FFF287"/>
<stop offset="0.23" stop-color="#FFF3B3"/>
<stop offset="0.33" stop-color="#FBEDAB"/>
<stop offset="0.48" stop-color="#F2DD96"/>
<stop offset="0.66" stop-color="#E2C373"/>
<stop offset="0.84" stop-color="#D0A44A"/>
</linearGradient>
<linearGradient id="paint11_linear_2193_7720" x1="-21.411" y1="48.3035" x2="156.078" y2="49.5808" gradientUnits="userSpaceOnUse">
<stop offset="0.18" stop-color="#FBC926"/>
<stop offset="0.32" stop-color="#F9DC93"/>
<stop offset="0.35" stop-color="#EFCF81"/>
<stop offset="0.41" stop-color="#D8AE55"/>
<stop offset="0.46" stop-color="#C3922E"/>
</linearGradient>
<linearGradient id="paint12_linear_2193_7720" x1="14.7359" y1="22.4046" x2="71.3785" y2="58.425" gradientUnits="userSpaceOnUse">
<stop stop-color="#259DCC"/>
<stop offset="0.56" stop-color="#1863A8"/>
<stop offset="0.99" stop-color="#0B4875"/>
</linearGradient>
<linearGradient id="paint13_linear_2193_7720" x1="-52.1799" y1="49.2045" x2="140.07" y2="48.2567" gradientUnits="userSpaceOnUse">
<stop stop-color="#FBC926"/>
<stop offset="0.36" stop-color="#FFFBCC"/>
<stop offset="0.42" stop-color="#E6CF8A"/>
<stop offset="0.48" stop-color="#D3AE58"/>
<stop offset="0.52" stop-color="#C79939"/>
<stop offset="0.54" stop-color="#C3922E"/>
<stop offset="0.7" stop-color="#EED688"/>
</linearGradient>
<linearGradient id="paint14_linear_2193_7720" x1="2.10716" y1="10.5557" x2="65.1918" y2="38.9251" gradientUnits="userSpaceOnUse">
<stop offset="0.13" stop-color="#FFFF4A"/>
<stop offset="0.22" stop-color="#FFFF7A" stop-opacity="0.81"/>
<stop offset="0.33" stop-color="#FFFFA9" stop-opacity="0.63"/>
<stop offset="0.44" stop-color="#FFFFCE" stop-opacity="0.49"/>
<stop offset="0.54" stop-color="#FFFFE9" stop-opacity="0.38"/>
<stop offset="0.63" stop-color="#FFFFF9" stop-opacity="0.32"/>
<stop offset="0.69" stop-color="white" stop-opacity="0.3"/>
</linearGradient>
<linearGradient id="paint15_linear_2193_7720" x1="8.13058" y1="24.1449" x2="65.317" y2="44.9597" gradientUnits="userSpaceOnUse">
<stop stop-color="white" stop-opacity="0.7"/>
<stop offset="1" stop-color="white" stop-opacity="0"/>
</linearGradient>
</defs>
</svg>
