<svg width="60" height="61" viewBox="0 0 60 61" fill="none" xmlns="http://www.w3.org/2000/svg">
<path d="M36.0728 49.1183L33.0008 27.7523C32.9288 27.2423 32.6408 26.7923 32.2088 26.5163L23.0468 20.5643C22.3028 20.0783 21.3128 20.2223 20.7308 20.9003L13.6148 29.1923C13.2788 29.5823 13.1288 30.0923 13.2068 30.6023L16.2788 51.9683C16.4168 52.9403 17.3168 53.6123 18.2888 53.4743L26.4308 52.3043L34.5728 51.1343C35.5448 50.9963 36.2168 50.0963 36.0788 49.1243L36.0728 49.1183ZM23.0708 29.0003C21.9308 29.1623 20.8748 28.3763 20.7128 27.2363C20.5508 26.0963 21.3368 25.0403 22.4768 24.8783C23.6168 24.7163 24.6728 25.5023 24.8348 26.6423C24.9968 27.7823 24.2108 28.8383 23.0708 29.0003Z" fill="#FDB64C"/>
<path d="M32.9944 27.7524C32.9224 27.2424 32.6344 26.7924 32.2024 26.5164L23.0404 20.5644C22.6024 20.2824 22.0804 20.2164 21.6124 20.3424L17.6524 27.0024C17.3404 27.5304 17.2684 28.1724 17.4604 28.7544L25.2064 52.4724L26.4304 52.2984L34.5724 51.1284C35.5444 50.9904 36.2164 50.0904 36.0784 49.1184L33.0064 27.7524H32.9944Z" fill="#FC8F36"/>
<path d="M53.1301 44.4803L42.4261 18.5843C42.1741 17.9723 41.6641 17.4923 41.0341 17.2823L27.6001 12.7283C26.5081 12.3563 25.3081 12.8543 24.7921 13.8863L18.4921 26.6003C18.1981 27.1943 18.1741 27.8903 18.4261 28.5083L29.1301 54.4043C29.6161 55.5803 30.9661 56.1443 32.1421 55.6523L42.0061 51.5723L51.8701 47.4923C53.0461 47.0063 53.6101 45.6563 53.1181 44.4803H53.1301ZM30.3361 23.3243C28.9561 23.8943 27.3721 23.2403 26.8021 21.8603C26.2321 20.4803 26.8861 18.8963 28.2661 18.3263C29.6461 17.7563 31.2301 18.4103 31.8001 19.7903C32.3701 21.1703 31.7161 22.7543 30.3361 23.3243Z" fill="#DC3532"/>
<path d="M31.2671 54.7149C30.7811 54.7149 30.3431 54.4269 30.1571 53.9769L19.4531 28.0809C19.3211 27.7629 19.3331 27.4029 19.4891 27.0909L25.7891 14.3769C25.9931 13.9689 26.4071 13.7109 26.8631 13.7109C26.9951 13.7109 27.1211 13.7349 27.2471 13.7769L40.6811 18.3309C41.0111 18.4389 41.2691 18.6909 41.4011 19.0089L52.105 44.9049C52.2251 45.1989 52.2251 45.5289 52.105 45.8229C51.9851 46.1169 51.7511 46.3509 51.4571 46.4709L31.7231 54.6249C31.5791 54.6849 31.4231 54.7149 31.2671 54.7149ZM29.3051 17.0109C28.8071 17.0109 28.3151 17.1069 27.8471 17.2989C26.9051 17.6889 26.1731 18.4209 25.7831 19.3629C25.3931 20.3049 25.3931 21.3429 25.7831 22.2789C26.3771 23.7129 27.7571 24.6369 29.3111 24.6369C29.8091 24.6369 30.3011 24.5409 30.7691 24.3489C32.7131 23.5449 33.6431 21.3129 32.8391 19.3689C32.2451 17.9349 30.8651 17.0109 29.3111 17.0109H29.3051Z" fill="#DC3532"/>
<path d="M40.158 19.9727L29.022 47.4707C28.908 47.7467 28.908 48.0587 29.022 48.3407L31.176 53.5607C31.188 53.5967 31.224 53.6147 31.26 53.6147H31.296L51.03 45.4487C51.054 45.4367 51.066 45.4247 51.078 45.4007C51.09 45.3767 51.09 45.3587 51.078 45.3347L40.596 19.9727C40.512 19.7747 40.236 19.7747 40.158 19.9727Z" fill="#DC3532"/>
<path d="M22.2487 19.017L23.0047 17.487C19.7827 15.831 17.4067 13.791 17.0887 12.405C17.0107 12.075 17.0647 11.823 17.2447 11.577C17.3767 11.397 17.5927 11.193 18.1387 11.223C20.7247 11.349 25.8967 16.221 28.1587 19.965C28.3207 20.229 28.6027 20.379 28.8907 20.379C29.0407 20.379 29.1907 20.337 29.3287 20.253C29.7307 20.007 29.8627 19.485 29.6167 19.083C27.3307 15.303 21.7567 9.69902 18.2227 9.51902C17.2327 9.47702 16.4287 9.82502 15.8827 10.551C15.3967 11.199 15.2407 11.973 15.4267 12.789C16.0867 15.657 20.8087 18.279 22.2367 19.011C22.2367 19.011 22.2427 19.011 22.2487 19.011V19.017Z" fill="#17181C"/>
<path d="M32.85 47.4929C32.676 47.4929 32.502 47.4629 32.328 47.3909C31.62 47.1029 31.278 46.2929 31.566 45.5849L38.292 29.0009C38.58 28.2929 39.39 27.9509 40.098 28.2389C40.806 28.5269 41.148 29.3369 40.86 30.0449L34.134 46.6289C33.918 47.1689 33.396 47.4929 32.85 47.4929Z" fill="#B32422"/>
<path d="M30.1263 39.2027C29.6343 39.2027 29.1483 39.1067 28.6803 38.9207C27.7263 38.5367 26.9823 37.7987 26.5803 36.8507C26.1783 35.9027 26.1723 34.8587 26.5563 33.9047C26.9403 32.9507 27.6783 32.2067 28.6263 31.8047C30.5823 30.9767 32.8443 31.8947 33.6723 33.8507C34.0743 34.7987 34.0803 35.8427 33.6963 36.7967C33.3123 37.7507 32.5743 38.4947 31.6263 38.8967C31.1463 39.1007 30.6363 39.2027 30.1263 39.2027ZM30.1263 34.2707C29.9883 34.2707 29.8443 34.3007 29.7063 34.3547C29.4423 34.4687 29.2323 34.6727 29.1243 34.9427C29.0163 35.2127 29.0163 35.5007 29.1243 35.7707C29.2383 36.0347 29.4483 36.2447 29.7123 36.3527C29.9823 36.4607 30.2703 36.4607 30.5403 36.3527C30.8043 36.2387 31.0143 36.0287 31.1223 35.7647C31.2303 35.4947 31.2303 35.2067 31.1223 34.9367C30.9483 34.5227 30.5463 34.2767 30.1263 34.2767V34.2707Z" fill="#B32422"/>
<path d="M42.3059 44.1345C40.8059 44.1345 39.3719 43.2525 38.7539 41.7825C37.9259 39.8265 38.8439 37.5645 40.7999 36.7365C41.7479 36.3345 42.7919 36.3285 43.7459 36.7125C44.6999 37.0965 45.4439 37.8345 45.8459 38.7825C46.6739 40.7385 45.7559 43.0005 43.7999 43.8285C43.3139 44.0325 42.8039 44.1345 42.3059 44.1345ZM42.2999 39.2025C42.1559 39.2025 42.0119 39.2325 41.8799 39.2865C41.3339 39.5205 41.0759 40.1505 41.3039 40.7025C41.5379 41.2485 42.1679 41.5065 42.7199 41.2785C43.2659 41.0445 43.5239 40.4145 43.2959 39.8625C43.1819 39.5985 42.9719 39.3885 42.7079 39.2805C42.5759 39.2265 42.4379 39.2025 42.2999 39.2025Z" fill="#B32422"/>
<path d="M32.85 46.9343C32.676 46.9343 32.502 46.9043 32.328 46.8323C31.62 46.5443 31.278 45.7343 31.566 45.0263L38.292 28.4423C38.58 27.7343 39.39 27.3923 40.098 27.6803C40.806 27.9683 41.148 28.7783 40.86 29.4863L34.134 46.0703C33.918 46.6103 33.396 46.9343 32.85 46.9343Z" fill="white"/>
<path d="M30.1263 38.648C29.6343 38.648 29.1483 38.552 28.6803 38.366C27.7263 37.982 26.9823 37.244 26.5803 36.296C26.1783 35.348 26.1723 34.304 26.5563 33.35C26.9403 32.396 27.6783 31.652 28.6263 31.25C30.5823 30.422 32.8443 31.34 33.6723 33.296C34.0743 34.244 34.0803 35.288 33.6963 36.242C33.3123 37.196 32.5743 37.94 31.6263 38.342C31.1463 38.546 30.6363 38.648 30.1263 38.648ZM30.1263 33.716C29.9883 33.716 29.8443 33.746 29.7063 33.8C29.4423 33.914 29.2323 34.118 29.1243 34.388C29.0163 34.658 29.0163 34.946 29.1243 35.216C29.2383 35.48 29.4483 35.69 29.7123 35.798C29.9823 35.906 30.2703 35.906 30.5403 35.798C30.8043 35.684 31.0143 35.474 31.1223 35.21C31.2303 34.94 31.2303 34.652 31.1223 34.382C30.9483 33.968 30.5463 33.722 30.1263 33.722V33.716Z" fill="white"/>
<path d="M42.3059 43.5799C40.8059 43.5799 39.3719 42.6979 38.7539 41.2279C37.9259 39.2719 38.8439 37.0099 40.7999 36.1819C41.7479 35.7799 42.7919 35.7739 43.7459 36.1579C44.6999 36.5419 45.4439 37.2799 45.8459 38.2279C46.6739 40.1839 45.7559 42.4459 43.7999 43.2739C43.3139 43.4779 42.8039 43.5799 42.3059 43.5799ZM42.2999 38.6479C42.1559 38.6479 42.0119 38.6779 41.8799 38.7319C41.3339 38.9659 41.0759 39.5959 41.3039 40.1479C41.5379 40.6939 42.1679 40.9519 42.7199 40.7239C43.2659 40.4899 43.5239 39.8599 43.2959 39.3079C43.1819 39.0439 42.9719 38.8339 42.7079 38.7259C42.5759 38.6719 42.4379 38.6479 42.2999 38.6479Z" fill="white"/>
<path d="M31.3804 11.8289C31.0924 11.8289 30.8584 11.5949 30.8584 11.3069V6.06887C30.8584 5.78087 31.0924 5.54688 31.3804 5.54688C31.6684 5.54688 31.9024 5.78087 31.9024 6.06887V11.3069C31.9024 11.5949 31.6684 11.8289 31.3804 11.8289Z" fill="#FC8F36"/>
<path d="M45.4137 14.827C45.2817 14.827 45.1437 14.773 45.0417 14.671C44.8377 14.467 44.8377 14.137 45.0417 13.927L47.8977 11.071C48.1017 10.867 48.4377 10.867 48.6417 11.071C48.8457 11.275 48.8457 11.605 48.6417 11.815L45.7857 14.671C45.6837 14.773 45.5517 14.827 45.4137 14.827Z" fill="#FC8F36"/>
<path d="M54.6662 28.8643H49.4282C49.1402 28.8643 48.9062 28.6303 48.9062 28.3423C48.9062 28.0543 49.1402 27.8203 49.4282 27.8203H54.6662C54.9542 27.8203 55.1883 28.0543 55.1883 28.3423C55.1883 28.6303 54.9542 28.8643 54.6662 28.8643Z" fill="#FC8F36"/>
<path d="M54.2515 36.3139C54.2035 36.3139 54.1555 36.3019 54.1075 36.2839L50.9635 34.9819C50.7715 34.9039 50.6815 34.6819 50.7595 34.4899C50.8375 34.2979 51.0595 34.2079 51.2515 34.2859L54.3955 35.5879C54.5875 35.6659 54.6775 35.8879 54.5995 36.0799C54.5395 36.2239 54.4015 36.3139 54.2515 36.3139Z" fill="#DC3532"/>
<path d="M37.7764 13.267C37.7284 13.267 37.6804 13.255 37.6324 13.237C37.4404 13.159 37.3504 12.937 37.4284 12.745L38.7304 9.60705C38.8084 9.41505 39.0304 9.32505 39.2224 9.40305C39.4144 9.48105 39.5044 9.70305 39.4264 9.89505L38.1244 13.033C38.0644 13.177 37.9264 13.267 37.7764 13.267Z" fill="#DC3532"/>
<path d="M25.3987 10.9401C25.2487 10.9401 25.1107 10.8501 25.0507 10.7061L23.8327 7.76614C23.7547 7.57414 23.8447 7.35814 24.0367 7.27414C24.2287 7.19614 24.4447 7.28614 24.5287 7.47814L25.7467 10.4181C25.8247 10.6101 25.7347 10.8261 25.5427 10.9101C25.4947 10.9281 25.4467 10.9401 25.3987 10.9401Z" fill="#DC3532"/>
<path d="M46.8243 22.3178C46.6743 22.3178 46.5363 22.2278 46.4763 22.0838C46.3983 21.8918 46.4883 21.6758 46.6803 21.5918L49.8183 20.2898C50.0103 20.2118 50.2263 20.3018 50.3103 20.4938C50.3883 20.6858 50.2983 20.9018 50.1063 20.9858L46.9683 22.2878C46.9203 22.3058 46.8723 22.3178 46.8243 22.3178Z" fill="#DC3532"/>
<path d="M16.1945 22.0245C16.0625 22.0245 15.9245 21.9705 15.8225 21.8685L12.9665 19.0125C12.7625 18.8085 12.7625 18.4785 12.9665 18.2685C13.1705 18.0585 13.5065 18.0645 13.7105 18.2685L16.5665 21.1245C16.7705 21.3285 16.7705 21.6585 16.5665 21.8685C16.4645 21.9705 16.3325 22.0245 16.1945 22.0245Z" fill="#FC8F36"/>
<path d="M10.566 51.2762C10.434 51.2762 10.296 51.2222 10.194 51.1202C9.99002 50.9162 9.99002 50.5862 10.194 50.3762L13.05 47.5202C13.254 47.3162 13.59 47.3162 13.794 47.5202C13.998 47.7242 13.998 48.0542 13.794 48.2642L10.938 51.1202C10.836 51.2222 10.704 51.2762 10.566 51.2762Z" fill="#FC8F36"/>
<path d="M9.9602 34.3877H4.7222C4.4342 34.3877 4.2002 34.1537 4.2002 33.8657C4.2002 33.5777 4.4342 33.3438 4.7222 33.3438H9.9602C10.2482 33.3438 10.4822 33.5777 10.4822 33.8657C10.4822 34.1537 10.2482 34.3877 9.9602 34.3877Z" fill="#FC8F36"/>
<path d="M12.5648 27.8451C12.5168 27.8451 12.4688 27.8331 12.4208 27.8151L9.28283 26.5131C9.09083 26.4351 9.00083 26.2131 9.07883 26.0211C9.15683 25.8291 9.37883 25.7391 9.57083 25.8171L12.7088 27.1191C12.9008 27.1971 12.9908 27.4191 12.9128 27.6111C12.8528 27.7551 12.7148 27.8451 12.5648 27.8451Z" fill="#DC3532"/>
<path d="M7.90828 42.9506C7.75828 42.9506 7.62028 42.8606 7.56028 42.7166C7.48228 42.5246 7.57227 42.3086 7.76427 42.2246L10.9083 40.9226C11.1003 40.8446 11.3163 40.9346 11.4003 41.1266C11.4783 41.3186 11.3883 41.5346 11.1963 41.6186L8.05228 42.9206C8.00428 42.9386 7.95628 42.9506 7.90828 42.9506Z" fill="#DC3532"/>
</svg>
