<svg width="60" height="61" viewBox="0 0 60 61" fill="none" xmlns="http://www.w3.org/2000/svg">
<g clip-path="url(#clip0_1462_31290)">
<path d="M3.04635 15.8219C2.95404 15.8219 2.76943 15.8219 2.67712 15.7296C2.03097 15.545 1.66174 14.8065 1.84635 14.068L3.78481 8.34495C3.96943 7.79111 4.43097 7.42188 4.98481 7.42188H9.32328C10.0617 7.42188 10.6156 7.97572 10.6156 8.71418C10.6156 9.45264 10.0617 10.0065 9.32328 10.0065H5.90789L4.24635 14.8988C4.15404 15.4526 3.6002 15.8219 3.04635 15.8219Z" fill="#DBDFE0"/>
<path d="M3.04588 13.3281C1.93819 13.3281 1.10742 14.1589 1.10742 15.2666V23.3897C1.10742 24.4974 1.93819 25.3281 3.04588 25.3281C4.15358 25.3281 4.98434 24.4974 4.98434 23.3897V15.2666C4.98434 14.1589 4.15358 13.3281 3.04588 13.3281Z" fill="#788D9A"/>
<path d="M56.954 15.8219C57.0463 15.8219 57.2309 15.8219 57.3232 15.7296C57.9694 15.545 58.3386 14.8065 58.154 14.068L56.2155 8.34495C56.0309 7.79111 55.5694 7.42188 55.0155 7.42188H50.6771C49.9386 7.42188 49.3848 7.97572 49.3848 8.71418C49.3848 9.45264 49.9386 10.0065 50.6771 10.0065H54.0925L55.754 14.8988C55.8463 15.4526 56.4002 15.8219 56.954 15.8219Z" fill="#DBDFE0"/>
<path d="M56.9541 13.3281C58.0618 13.3281 58.8925 14.1589 58.8925 15.2666V23.3897C58.8925 24.4974 58.0618 25.3281 56.9541 25.3281C55.8464 25.3281 55.0156 24.4974 55.0156 23.3897V15.2666C55.0156 14.1589 55.8464 13.3281 56.9541 13.3281Z" fill="#788D9A"/>
<path d="M53.9072 31.0522V53.8522H6.0918V31.0522C6.0918 31.0522 6.0918 2.43678 11.9072 1.5137C17.7226 0.682933 42.2764 0.682933 48.0918 1.5137C53.9072 2.43678 53.9072 31.0522 53.9072 31.0522Z" fill="#41B3E2"/>
<path d="M52.7074 30.8662V34.3739C52.7074 35.2046 52.0612 35.8508 51.2305 35.8508H8.76892C7.93815 35.8508 7.29199 35.2046 7.29199 34.3739V30.8662C7.29199 30.8662 7.29199 30.5892 7.29199 30.1277C7.29199 27.5431 7.47661 18.3123 8.76892 11.2969C9.23045 8.80463 11.4458 7.05078 13.9381 7.05078H46.0612C48.5535 7.05078 50.6766 8.89694 51.1381 11.3892C52.4305 18.4046 52.6151 27.6354 52.6151 30.22C52.7074 30.5892 52.7074 30.8662 52.7074 30.8662Z" fill="#445C6C"/>
<path d="M20.7685 47.3896H13.9377C11.1685 47.3896 8.95312 45.1743 8.95312 42.405H15.6916C18.4608 42.3127 20.7685 44.6204 20.7685 47.3896Z" fill="#379FC8"/>
<path d="M14.6767 46.8379C15.7473 46.8379 16.6152 45.97 16.6152 44.8994C16.6152 43.8288 15.7473 42.9609 14.6767 42.9609C13.6062 42.9609 12.7383 43.8288 12.7383 44.8994C12.7383 45.97 13.6062 46.8379 14.6767 46.8379Z" fill="white"/>
<path d="M18.4617 47.0211C19.1245 47.0211 19.6617 46.4838 19.6617 45.8211C19.6617 45.1584 19.1245 44.6211 18.4617 44.6211C17.799 44.6211 17.2617 45.1584 17.2617 45.8211C17.2617 46.4838 17.799 47.0211 18.4617 47.0211Z" fill="white"/>
<path d="M10.7073 45.2682C11.4211 45.2682 11.9997 44.6896 11.9997 43.9759C11.9997 43.2622 11.4211 42.6836 10.7073 42.6836C9.99363 42.6836 9.41504 43.2622 9.41504 43.9759C9.41504 44.6896 9.99363 45.2682 10.7073 45.2682Z" fill="#FBD984"/>
<path d="M39.2305 47.3896H46.0612C48.8305 47.3896 51.0459 45.1743 51.0459 42.405H44.3074C41.5382 42.3127 39.2305 44.6204 39.2305 47.3896Z" fill="#379FC8"/>
<path d="M45.3232 46.8379C46.3938 46.8379 47.2617 45.97 47.2617 44.8994C47.2617 43.8288 46.3938 42.9609 45.3232 42.9609C44.2526 42.9609 43.3848 43.8288 43.3848 44.8994C43.3848 45.97 44.2526 46.8379 45.3232 46.8379Z" fill="white"/>
<path d="M41.5379 47.0211C42.2006 47.0211 42.7379 46.4838 42.7379 45.8211C42.7379 45.1584 42.2006 44.6211 41.5379 44.6211C40.8751 44.6211 40.3379 45.1584 40.3379 45.8211C40.3379 46.4838 40.8751 47.0211 41.5379 47.0211Z" fill="white"/>
<path d="M49.2923 45.2682C50.006 45.2682 50.5846 44.6896 50.5846 43.9759C50.5846 43.2622 50.006 42.6836 49.2923 42.6836C48.5786 42.6836 48 43.2622 48 43.9759C48 44.6896 48.5786 45.2682 49.2923 45.2682Z" fill="#FBD984"/>
<path d="M23.8146 42.8676H36.0916C36.4608 42.8676 36.83 42.5906 36.83 42.1291C36.83 41.7599 36.5531 41.3906 36.0916 41.3906H23.8146C23.4454 41.3906 23.0762 41.6675 23.0762 42.1291C23.1685 42.5906 23.4454 42.8676 23.8146 42.8676ZM36.1839 44.3445H23.8146C23.4454 44.3445 23.0762 44.6214 23.0762 45.0829C23.0762 45.4522 23.3531 45.8214 23.8146 45.8214H36.0916C36.4608 45.8214 36.83 45.5445 36.83 45.0829C36.83 44.7137 36.5531 44.3445 36.1839 44.3445ZM36.1839 47.2983H23.8146C23.4454 47.2983 23.0762 47.5752 23.0762 48.0368C23.0762 48.406 23.3531 48.7752 23.8146 48.7752H36.0916C36.4608 48.7752 36.83 48.4983 36.83 48.0368C36.83 47.5752 36.5531 47.2983 36.1839 47.2983Z" fill="#445C6C"/>
<path d="M38.3078 49.7891H21.6924V52.8352H38.3078V49.7891Z" fill="#379FC8"/>
<path d="M14.3079 49.7891H9.87713C9.4156 49.7891 9.13867 50.1583 9.13867 50.5275C9.13867 50.8968 9.5079 51.266 9.87713 51.266H14.3079C14.7694 51.266 15.0464 50.8968 15.0464 50.5275C15.0464 50.1583 14.7694 49.7891 14.3079 49.7891ZM50.031 49.7891H45.6002C45.1387 49.7891 44.8617 50.1583 44.8617 50.5275C44.8617 50.8968 45.231 51.266 45.6925 51.266H50.1233C50.5848 51.266 50.8617 50.8968 50.8617 50.5275C50.8617 50.1583 50.4925 49.7891 50.031 49.7891Z" fill="#FBD984"/>
<path d="M7.75391 53.8516V59.1131C7.75391 59.5746 8.12314 60.0362 8.67698 60.0362H13.0154C13.5693 60.0362 13.9385 59.6669 13.9385 59.1131V53.8516H7.75391ZM46.0616 53.8516V59.1131C46.0616 59.5746 46.4308 60.0362 46.9847 60.0362H51.3231C51.7847 60.0362 52.2462 59.6669 52.2462 59.1131V53.8516H46.0616Z" fill="#445C6C"/>
<path d="M28.7072 38.6204H6.0918V37.3281L28.7072 38.6204Z" fill="#5BD0F4"/>
<path d="M53.9075 37.4219V38.6219H32.8613L53.9075 37.4219Z" fill="#5BD0F4"/>
<path d="M52.7074 30.8674V34.3751C52.7074 35.2058 52.0612 35.852 51.2305 35.852H8.76892C7.93815 35.852 7.29199 35.2058 7.29199 34.3751V30.8674C7.29199 30.8674 7.29199 30.5904 7.29199 30.1289H52.6151C52.7074 30.5904 52.7074 30.8674 52.7074 30.8674Z" fill="#304754"/>
<path d="M12 34.3753L20.7692 31.1445H33.4154V31.6984H20.7692L14.6769 34.3753H12Z" fill="#192B33"/>
<path d="M48.369 34.3755L39.6921 32.1602H27.0459V32.5294H39.6921L45.7844 34.3755H48.369Z" fill="#192B33"/>
<path d="M23.7224 2.16016C23.7224 2.16016 14.2147 2.16016 12.8301 2.89862C11.5378 3.63708 10.8916 5.94477 12.5531 5.94477C14.2147 5.94477 21.507 5.39093 25.9378 5.39093C25.9378 5.39093 14.8608 5.39093 12.5531 5.39093C11.9993 5.39093 11.907 3.72939 13.2916 3.36016C15.8762 2.714 23.7224 2.16016 23.7224 2.16016Z" fill="#2E89AC"/>
<path d="M14.953 4.93005C15.7177 4.93005 16.3376 4.59943 16.3376 4.19159C16.3376 3.78375 15.7177 3.45312 14.953 3.45312C14.1883 3.45312 13.5684 3.78375 13.5684 4.19159C13.5684 4.59943 14.1883 4.93005 14.953 4.93005Z" fill="#FBD984"/>
<path d="M36.2769 2.16016C36.2769 2.16016 45.7846 2.16016 47.1692 2.89862C48.4615 3.63708 49.1077 5.94477 47.4461 5.94477C45.7846 5.94477 38.4923 5.39093 34.0615 5.39093C34.0615 5.39093 45.1384 5.39093 47.4461 5.39093C48 5.39093 48.0923 3.72939 46.7077 3.36016C44.1231 2.714 36.2769 2.16016 36.2769 2.16016Z" fill="#2E89AC"/>
<path d="M45.0457 4.93005C45.8105 4.93005 46.4304 4.59943 46.4304 4.19159C46.4304 3.78375 45.8105 3.45312 45.0457 3.45312C44.281 3.45312 43.6611 3.78375 43.6611 4.19159C43.6611 4.59943 44.281 4.93005 45.0457 4.93005Z" fill="#FBD984"/>
</g>
<defs>
<clipPath id="clip0_1462_31290">
<rect width="60" height="60" fill="white" transform="translate(0 0.5)"/>
</clipPath>
</defs>
</svg>
