<svg width="160" height="160" viewBox="0 0 160 160" fill="none" xmlns="http://www.w3.org/2000/svg">
<path d="M79.9946 140C113.132 140 139.995 113.137 139.995 80C139.995 46.8629 113.132 20 79.9946 20C46.8575 20 19.9946 46.8629 19.9946 80C19.9946 113.137 46.8575 140 79.9946 140Z" fill="#FFE2CD"/>
<path d="M73.9846 129.14C78.1946 130.38 82.7246 130.19 86.9146 128.89L137.735 113.17C140.655 112.31 142.645 109.72 142.645 106.78V74.73C142.645 72.74 141.725 70.85 140.135 69.58L100.465 37.29C94.3346 32.4 77.9646 25.97 77.2946 33.6L65.4446 121.03C65.2046 123.78 68.0646 127.39 73.9746 129.14H73.9846Z" fill="white"/>
<path d="M74.9947 129.67L24.6547 124.49C20.1847 124.03 18.1547 120.76 17.5247 114.62V114.67C14.8147 74.25 23.4847 46.81 23.4847 46.81C24.5647 43.26 27.8847 40.73 31.3847 40.13L32.4947 39.95C45.8947 37.25 80.1047 30.13 80.1047 30.13C85.0347 29.28 89.5647 33.01 89.5647 37.93L83.8947 121.8C83.8947 126.5 79.7547 130.17 74.9947 129.68V129.67Z" fill="#C22126"/>
<path d="M76.4847 87.28L26.6148 87.19C22.4348 86.76 19.4147 83.05 19.9147 78.94L20.9648 71.22C22.0148 63.46 23.4748 55.75 25.3448 48.13L25.4048 47.87C26.3348 44.59 28.7147 42.4 31.9847 41.83L78.5147 32.25C83.1247 31.45 87.3547 34.94 87.3547 39.54L84.7947 79.9C84.7947 84.29 80.9248 87.72 76.4748 87.26L76.4847 87.28Z" fill="#551615"/>
<path d="M76.1926 110.556C76.4275 106.913 73.9596 103.788 70.6803 103.577C67.401 103.365 64.5522 106.147 64.3173 109.79C64.0823 113.433 66.5502 116.558 69.8295 116.769C73.1088 116.981 75.9576 114.199 76.1926 110.556Z" fill="#FC790D"/>
<mask id="mask0_9754_139" style="mask-type:luminance" maskUnits="userSpaceOnUse" x="64" y="103" width="13" height="14">
<path d="M76.1926 110.556C76.4275 106.913 73.9596 103.788 70.6803 103.577C67.401 103.365 64.5522 106.147 64.3173 109.79C64.0823 113.433 66.5502 116.558 69.8295 116.769C73.1088 116.981 75.9576 114.199 76.1926 110.556Z" fill="white"/>
</mask>
<g mask="url(#mask0_9754_139)">
<path d="M80.2319 110.453C80.4255 106.913 77.8644 103.894 74.5115 103.711C71.1586 103.527 68.2836 106.249 68.09 109.789C67.8964 113.33 70.4576 116.348 73.8104 116.532C77.1633 116.715 80.0383 113.994 80.2319 110.453Z" fill="#FDFBF0"/>
</g>
<path d="M33.241 106.881C33.4493 103.651 31.2636 100.881 28.3591 100.694C25.4546 100.507 22.9311 102.973 22.7228 106.203C22.5146 109.432 24.7003 112.202 27.6048 112.39C30.5093 112.577 33.0327 110.111 33.241 106.881Z" fill="#FC790D"/>
<mask id="mask1_9754_139" style="mask-type:luminance" maskUnits="userSpaceOnUse" x="22" y="100" width="12" height="13">
<path d="M33.241 106.881C33.4493 103.651 31.2636 100.881 28.3591 100.694C25.4546 100.507 22.9311 102.973 22.7228 106.203C22.5146 109.432 24.7003 112.202 27.6048 112.39C30.5093 112.577 33.0327 110.111 33.241 106.881Z" fill="white"/>
</mask>
<g mask="url(#mask1_9754_139)">
<path d="M36.8156 106.804C36.9872 103.666 34.7167 100.991 31.7443 100.828C28.7719 100.666 26.2232 103.078 26.0517 106.216C25.8801 109.354 28.1506 112.029 31.1229 112.192C34.0953 112.354 36.644 109.942 36.8156 106.804Z" fill="#FDFBF0"/>
</g>
<path d="M45.7447 39.0499L63.9947 87.2499L57.5847 87.2399L41.3247 39.9399L45.7447 39.0499Z" fill="#673B3C"/>
<path d="M54.9047 37.15L62.8347 70.53L50.2847 38.11L54.9047 37.15Z" fill="#673B3C"/>
<path d="M136.405 88.86H95.4547C92.5847 88.86 90.3047 86.64 90.4647 83.99L92.8547 44.37C92.9847 42.25 95.6547 41.15 97.4547 42.48L138.425 72.84C139.185 73.4 139.625 74.26 139.625 75.16V85.89C139.625 87.53 138.185 88.86 136.405 88.86Z" fill="#551615"/>
<path d="M109.275 122.02L110.815 121.52C110.815 121.52 111.655 107.21 105.505 107.49L109.275 122.02Z" fill="#551615"/>
<path d="M94.3347 117.1C94.5647 111.59 97.0547 107.26 99.9147 107.43H104.885C104.985 107.43 105.085 107.43 105.185 107.43C108.035 107.6 110.165 112.2 109.945 117.71C109.715 123.22 107.225 127.55 104.365 127.38L99.3947 126.92C99.2947 126.92 99.1947 126.92 99.0947 126.92C96.2447 126.75 94.1147 122.62 94.3347 117.11V117.1Z" fill="#551615"/>
<path d="M107.766 117.836C108.01 114.575 106.901 111.834 105.287 111.713C103.673 111.592 102.167 114.137 101.922 117.398C101.678 120.658 102.788 123.399 104.401 123.52C106.015 123.641 107.521 121.096 107.766 117.836Z" fill="#C22126"/>
<path d="M106.995 118C107.265 114.88 106.295 112.19 104.795 111.79C104.985 111.74 105.185 111.72 105.385 111.74C106.995 111.94 108.065 114.74 107.785 118C107.505 121.26 105.975 123.74 104.365 123.54C104.295 123.54 104.235 123.51 104.165 123.49C105.545 123.11 106.755 120.85 107.005 118H106.995Z" fill="#C22126"/>
<path d="M126.005 110.99C126.155 107.26 127.845 104.33 129.785 104.44H133.155C133.225 104.44 133.285 104.44 133.355 104.44C135.285 104.55 136.735 107.67 136.575 111.4C136.425 115.13 134.735 118.06 132.795 117.95L129.425 117.64C129.355 117.64 129.295 117.64 129.225 117.64C127.295 117.53 125.845 114.73 126.005 110.99Z" fill="#551615"/>
<path d="M135.102 111.495C135.268 109.287 134.518 107.43 133.427 107.348C132.337 107.266 131.319 108.99 131.153 111.199C130.987 113.407 131.737 115.264 132.827 115.346C133.918 115.427 134.936 113.703 135.102 111.495Z" fill="#C22126"/>
<path d="M134.585 111.6C134.765 109.49 134.105 107.66 133.095 107.39C133.225 107.35 133.355 107.34 133.495 107.36C134.585 107.49 135.315 109.39 135.115 111.6C134.925 113.81 133.885 115.48 132.795 115.35C132.745 115.35 132.705 115.33 132.655 115.32C133.585 115.06 134.405 113.54 134.575 111.6H134.585Z" fill="#C22126"/>
<path d="M92.0847 127.31L98.3447 125.36C99.6547 124.92 100.525 123.74 100.525 122.4V113.06C100.525 110.09 102.575 107.48 105.615 107.48L106.565 106.52H95.7247L92.0847 115.46V127.31Z" fill="white"/>
<path d="M124.685 117.21L128.695 115.96C129.535 115.68 130.095 114.92 130.095 114.06V108.07C130.095 106.16 131.505 104.44 133.455 104.44L133.975 103.87H127.015L124.685 109.61V117.21Z" fill="white"/>
<path d="M85.6748 95.1899L140.645 93.9099L140.635 99.3199L84.8848 105.58L85.6748 95.1899Z" fill="#FC790D"/>
<path d="M35.8647 106.74C35.8647 106.74 41.7547 109.12 60.9547 108.53L35.8647 106.74Z" fill="#551615"/>
<path d="M22.5446 115.98L75.8246 120.75C75.8246 120.75 75.5146 123.43 72.7246 123.43C69.9346 123.43 23.7846 118.36 23.7846 118.36C23.7846 118.36 22.2146 117.65 22.5446 115.98Z" fill="#551615"/>
<path d="M17.5947 87.36C17.5947 87.36 26.2647 89.45 27.5047 95.11L70.5547 95.71C70.5547 95.71 73.6547 89.15 86.0447 87.36" stroke="#551615" stroke-width="0.61" stroke-miterlimit="10"/>
<path d="M98.3346 125.36C99.6846 124.92 100.195 123.95 100.395 123.24L86.8046 127.44C84.6446 128.11 82.4046 128.46 80.1546 128.49C78.7446 129.34 77.3246 129.63 76.2346 129.7C79.7446 130.29 83.3846 129.98 86.8046 128.93L98.2446 125.39C98.2446 125.39 98.3046 125.37 98.3346 125.36Z" fill="#C22126"/>
<path d="M130.105 114.05L110.835 120.01C110.835 120.78 110.805 121.47 110.805 121.51L128.505 116.04C130.125 115.49 130.135 114.38 130.105 114.06V114.05Z" fill="#C22126"/>
<path d="M137.625 111.72L137.075 111.89C137.115 112.62 137.075 113.31 137.075 113.31C137.075 113.34 137.055 113.36 137.055 113.39L137.615 113.22C140.535 112.36 142.525 109.77 142.525 106.83V105.34C142.525 108.28 140.535 110.87 137.615 111.73L137.625 111.72Z" fill="#C22126"/>
<path d="M115.775 50.7H115.545V90.94H115.775V50.7Z" fill="white"/>
<path d="M136.445 113.88L137.435 113.56C137.435 113.56 137.745 104.5 133.795 104.68L136.455 113.88H136.445Z" fill="#551615"/>
<path d="M142.995 99.0901L142.925 91.2101C141.875 91.1301 140.985 91.9801 140.985 93.0401V101.34C140.985 102.35 141.795 103.18 142.795 103.18H142.855L142.995 99.1001V99.0901Z" fill="#FC790D"/>
<path d="M131.445 64.14H131.215V91.7H131.445V64.14Z" fill="white"/>
</svg>
