<svg width="160" height="160" viewBox="0 0 160 160" fill="none" xmlns="http://www.w3.org/2000/svg">
<path d="M80.001 140C113.138 140 140.001 113.137 140.001 80C140.001 46.8629 113.138 20 80.001 20C46.8639 20 20.001 46.8629 20.001 80C20.001 113.137 46.8639 140 80.001 140Z" fill="#FFE2CD"/>
<path d="M39.5908 88.86H45.4708C50.8208 88.86 55.1708 93.2 55.1708 98.56V100.37C55.1708 105.72 50.8308 110.07 45.4708 110.07H39.5908V88.87V88.86Z" fill="#551615"/>
<path d="M40.3109 110.06C45.2097 110.06 49.1809 105.314 49.1809 99.46C49.1809 93.6058 45.2097 88.86 40.3109 88.86C35.4122 88.86 31.4409 93.6058 31.4409 99.46C31.4409 105.314 35.4122 110.06 40.3109 110.06Z" fill="#FC790D"/>
<path d="M40.1108 107.99C44.1314 107.99 47.3908 104.095 47.3908 99.29C47.3908 94.4851 44.1314 90.59 40.1108 90.59C36.0902 90.59 32.8308 94.4851 32.8308 99.29C32.8308 104.095 36.0902 107.99 40.1108 107.99Z" fill="#551615"/>
<path d="M21.7211 98.28C16.7211 96.59 12.3311 93.33 9.48112 88.84C7.96112 86.44 6.83112 83.68 7.02112 80.89C7.41112 75.23 9.71112 71.65 13.2511 68.67C16.3211 66.09 19.1011 63.18 21.5411 59.98C25.5111 54.77 32.9511 47.52 43.7111 47.35C60.5611 47.08 126.601 76.49 126.601 76.49C126.601 76.49 128.231 77.59 129.051 75.39C129.871 73.19 136.661 48.17 136.661 48.17L140.191 51.47L136.661 80.89C136.661 80.89 139.531 91.46 136.391 94.09C124.361 104.14 68.8211 114.2 21.7211 98.28Z" fill="white"/>
<path d="M21.8011 97.97C68.9011 113.89 124.441 103.84 136.471 93.78C136.931 93.4 137.251 92.85 137.481 92.19C82.5811 104.47 41.9511 87.11 32.4411 82.38C25.8711 79.12 15.4911 71.39 9.52111 72.63C8.17111 74.79 7.32111 77.34 7.09111 80.59C6.98111 82.24 7.33111 83.88 7.95111 85.45C8.45111 86.57 9.02111 87.66 9.66111 88.7C12.5111 93.1 16.8511 96.31 21.7911 97.98L21.8011 97.97Z" fill="#FC790D"/>
<path d="M136.391 94.1C80.401 103.2 47.801 94.74 34.481 89.64C30.961 88.29 27.641 86.47 24.571 84.27C19.831 80.87 10.481 75 7.29102 78.98C6.99102 79.35 7.52102 78.84 7.22102 79.08C7.13102 79.66 7.06102 80.27 7.02102 80.9C6.83102 83.69 7.95102 86.45 9.48102 88.85C12.331 93.34 16.721 96.6 21.721 98.29C68.821 114.21 124.361 104.16 136.391 94.1Z" fill="#551615"/>
<path d="M108.741 99.5999C107.901 98.6999 160.051 92.7399 152.191 89.3999L148.011 88.0699L79.5811 89.16C76.5211 89.21 74.0311 91.6699 73.9111 94.7599C76.3511 94.9099 107.251 100.71 108.741 99.5999Z" fill="#C22126"/>
<path d="M73.9111 94.7599L147.721 88.0699L79.5811 89.16C76.5211 89.21 74.0311 91.6699 73.9111 94.7599Z" fill="#551615"/>
<path d="M99.6711 92.1599H105.551C110.901 92.1599 115.251 96.4999 115.251 101.86V103.67C115.251 109.02 110.911 113.37 105.551 113.37H99.6711V92.1699V92.1599Z" fill="#551615"/>
<path d="M100.381 113.36C105.28 113.36 109.251 108.614 109.251 102.76C109.251 96.9057 105.28 92.1599 100.381 92.1599C95.4825 92.1599 91.5112 96.9057 91.5112 102.76C91.5112 108.614 95.4825 113.36 100.381 113.36Z" fill="#FC790D"/>
<path d="M100.191 111.29C104.212 111.29 107.471 107.395 107.471 102.59C107.471 97.785 104.212 93.8899 100.191 93.8899C96.1705 93.8899 92.9111 97.785 92.9111 102.59C92.9111 107.395 96.1705 111.29 100.191 111.29Z" fill="#551615"/>
<path d="M15.4309 66.67C15.4309 66.67 20.6809 61.31 21.5409 59.99C22.3209 58.8 38.6009 61.99 40.9909 62.48C43.6109 63.01 46.4309 64.68 46.4309 67.98C46.4309 69.76 44.9109 71.15 43.1609 70.96C38.4609 70.45 28.8509 69.23 15.4309 66.68V66.67Z" fill="#551615"/>
<path d="M34.921 70.89L34.321 70.75L37.421 60.86L38.021 61L34.921 70.89Z" fill="white"/>
<path d="M136.661 80.8999L140.191 51.4799L136.661 48.1799L128.331 71.6699C127.671 73.5299 126.051 74.9499 124.101 75.1299C123.811 75.1599 123.511 75.1599 123.211 75.1299C120.761 74.8599 130.321 79.7999 136.661 80.8999Z" fill="#C22126"/>
<path d="M98.5109 80.28C98.4809 84.72 101.871 84.72 101.841 80.28C101.871 75.84 98.4809 75.84 98.5109 80.28Z" fill="#551615"/>
<path d="M103.721 82.0999C103.691 86.5399 107.081 86.5399 107.051 82.0999C107.081 77.6599 103.691 77.6599 103.721 82.0999Z" fill="#551615"/>
<path d="M92.9809 78.66C92.9509 83.1 96.3409 83.1 96.3109 78.66C96.3409 74.22 92.9509 74.22 92.9809 78.66Z" fill="#C22126"/>
<path d="M87.5209 77.2299C87.4909 81.6699 90.881 81.6699 90.851 77.2299C90.881 72.7899 87.4909 72.7899 87.5209 77.2299Z" fill="#551615"/>
<path d="M82.1909 75.56C82.1609 80 85.5509 80 85.5209 75.56C85.5509 71.12 82.1609 71.12 82.1909 75.56Z" fill="#551615"/>
<path d="M76.7109 73.81C76.6809 78.25 80.0709 78.25 80.0409 73.81C80.0709 69.37 76.6809 69.37 76.7109 73.81Z" fill="#C22126"/>
<path d="M71.2309 72.2199C71.2009 76.6599 74.5909 76.6599 74.5609 72.2199C74.5909 67.7799 71.2009 67.7799 71.2309 72.2199Z" fill="#551615"/>
<path d="M65.9909 70.6499C65.9609 75.0899 69.3509 75.0899 69.3209 70.6499C69.3509 66.2099 65.9609 66.2099 65.9909 70.6499Z" fill="#551615"/>
<path d="M27.821 53.47C34.171 50.73 48.111 49.1 75.211 58.86C114.131 72.88 136.391 81.06 136.391 81.06C136.391 81.06 63.381 47.04 43.711 47.36C37.171 47.47 31.871 50.18 27.821 53.47Z" fill="#C22126"/>
<path d="M59.5509 76.1699C58.2409 75.9699 57.3309 74.7399 57.5209 73.4099L58.7109 65.2599C58.9009 63.9299 60.1309 63.0099 61.4409 63.2099C62.7509 63.4099 63.6609 64.6399 63.4709 65.9699L62.2809 74.1199C62.0909 75.4499 60.8609 76.3699 59.5509 76.1699Z" stroke="#C22126" stroke-width="0.99" stroke-miterlimit="10"/>
</svg>
