<svg width="60" height="61" viewBox="0 0 60 61" fill="none" xmlns="http://www.w3.org/2000/svg">
<path d="M51.3 25.8694C50.3032 25.4489 49.4489 24.75 48.8392 23.8563C48.2296 22.9626 47.8907 21.9121 47.863 20.8306C47.8353 19.7492 48.12 18.6827 48.683 17.7589C49.2461 16.8352 50.0636 16.0934 51.0375 15.6225C51.147 15.5748 51.2341 15.4871 51.2812 15.3774C51.3282 15.2676 51.3316 15.144 51.2906 15.0319L49.0875 9.32249C49.0429 9.20709 48.976 9.10165 48.8905 9.01224C48.805 8.92284 48.7027 8.85124 48.5894 8.80156C48.4761 8.75189 48.3541 8.72513 48.2304 8.72282C48.1067 8.72051 47.9838 8.7427 47.8687 8.78812L3.75 25.8131" fill="#EFD050"/>
<path d="M31.2559 15.2188L32.2684 17.8344" stroke="#FCE895" stroke-width="2" stroke-miterlimit="10"/>
<path d="M32.9531 19.5859L33.9656 22.2109" stroke="#FCE895" stroke-width="2" stroke-miterlimit="10"/>
<path d="M34.6406 23.957L35.3906 25.907" stroke="#FCE895" stroke-width="2" stroke-miterlimit="10"/>
<path d="M36.9844 17.0195L40.0312 24.8945" stroke="#CCA812" stroke-width="2" stroke-miterlimit="10" stroke-linecap="round"/>
<path d="M40.4814 15.668L44.4096 25.8117" stroke="#CCA812" stroke-width="2" stroke-miterlimit="10" stroke-linecap="round"/>
<path d="M51.5625 38.9375C51.558 37.5204 52.0884 36.1539 53.0479 35.111C54.0073 34.0682 55.325 33.4259 56.7375 33.3125C56.8585 33.3077 56.973 33.2561 57.0569 33.1687C57.1408 33.0814 57.1876 32.9649 57.1875 32.8438V26.75C57.1875 26.5014 57.0887 26.2629 56.9129 26.0871C56.7371 25.9113 56.4986 25.8125 56.25 25.8125H3.75C3.50136 25.8125 3.2629 25.9113 3.08709 26.0871C2.91127 26.2629 2.8125 26.5014 2.8125 26.75V32.8625C2.8124 32.9836 2.85921 33.1001 2.9431 33.1875C3.02699 33.2749 3.14146 33.3264 3.2625 33.3313C4.75434 33.3313 6.18508 33.9239 7.23998 34.9788C8.29487 36.0337 8.8875 37.4644 8.8875 38.9563C8.8875 40.4481 8.29487 41.8788 7.23998 42.9337C6.18508 43.9886 4.75434 44.5813 3.2625 44.5813C3.14146 44.5861 3.02699 44.6376 2.9431 44.725C2.85921 44.8124 2.8124 44.9289 2.8125 45.05V51.125C2.8125 51.3736 2.91127 51.6121 3.08709 51.7879C3.2629 51.9637 3.50136 52.0625 3.75 52.0625H56.25C56.4986 52.0625 56.7371 51.9637 56.9129 51.7879C57.0887 51.6121 57.1875 51.3736 57.1875 51.125V45.0125C57.1876 44.8914 57.1408 44.7749 57.0569 44.6875C56.973 44.6001 56.8585 44.5486 56.7375 44.5437C55.3282 44.4306 54.0132 43.791 53.0542 42.7521C52.0953 41.7132 51.5627 40.3513 51.5625 38.9375Z" fill="#F7D64B"/>
<path d="M38.4375 25.8125V28.625" stroke="#FCE895" stroke-width="2" stroke-miterlimit="10"/>
<path d="M38.4375 30.5V33.3125" stroke="#FCE895" stroke-width="2" stroke-miterlimit="10"/>
<path d="M38.4375 35.1875V38" stroke="#FCE895" stroke-width="2" stroke-miterlimit="10"/>
<path d="M38.4375 39.875V42.6875" stroke="#FCE895" stroke-width="2" stroke-miterlimit="10"/>
<path d="M38.4375 44.5625V47.375" stroke="#FCE895" stroke-width="2" stroke-miterlimit="10"/>
<path d="M38.4375 49.25V52.0625" stroke="#FCE895" stroke-width="2" stroke-miterlimit="10"/>
<path d="M12.1875 29.5625H25.3125" stroke="#CCA812" stroke-width="2" stroke-miterlimit="10" stroke-linecap="round"/>
<path d="M12.1875 33.3125H34.6875" stroke="#CCA812" stroke-width="2" stroke-miterlimit="10" stroke-linecap="round"/>
<path d="M12.1875 37.0625H34.6875" stroke="#CCA812" stroke-width="2" stroke-miterlimit="10" stroke-linecap="round"/>
<path d="M12.1875 40.8125H34.6875" stroke="#CCA812" stroke-width="2" stroke-miterlimit="10" stroke-linecap="round"/>
<path d="M33.75 44.5625H13.125C12.6072 44.5625 12.1875 44.9822 12.1875 45.5V47.375C12.1875 47.8928 12.6072 48.3125 13.125 48.3125H33.75C34.2678 48.3125 34.6875 47.8928 34.6875 47.375V45.5C34.6875 44.9822 34.2678 44.5625 33.75 44.5625Z" fill="#FCE895"/>
<path d="M43.125 29.5625V38" stroke="#CCA812" stroke-width="2" stroke-miterlimit="10" stroke-linecap="round"/>
<path d="M46.875 29.5625V48.3125" stroke="#CCA812" stroke-width="2" stroke-miterlimit="10" stroke-linecap="round"/>
<g clip-path="url(#clip0_1462_31332)">
<path d="M37.3438 2.375H23.125L15 28.7812H25.1562L21.0938 51.125L39.375 20.6562H29.2188L37.3438 2.375Z" fill="#E24740"/>
</g>
<defs>
<clipPath id="clip0_1462_31332">
<rect width="48.75" height="48.75" fill="white" transform="translate(2.8125 2.375)"/>
</clipPath>
</defs>
</svg>
