<svg width="60" height="61" viewBox="0 0 60 61" fill="none" xmlns="http://www.w3.org/2000/svg">
<path d="M13.1195 54.6013L12.1143 52.5466L43.8622 37.0394L12.2309 25.6688L13.0029 23.5156L49.732 36.7179L13.1195 54.6013Z" fill="#424E9B"/>
<path d="M51.983 36.8741C51.9818 37.9604 51.5498 39.0019 50.7818 39.7702C50.0137 40.5384 48.9723 40.9707 47.886 40.9722C46.7997 40.9707 45.7583 40.5384 44.9903 39.7702C44.2222 39.0019 43.7902 37.9604 43.789 36.8741C43.7889 36.3361 43.8948 35.8033 44.1006 35.3063C44.3065 34.8092 44.6083 34.3575 44.9887 33.9772C45.3692 33.5968 45.8209 33.2951 46.3181 33.0894C46.8152 32.8837 47.348 32.778 47.886 32.7783C48.4241 32.778 48.957 32.8837 49.4542 33.0895C49.9514 33.2953 50.4032 33.5971 50.7837 33.9776C51.1642 34.3581 51.4659 34.8098 51.6717 35.307C51.8775 35.8042 51.9833 36.336 51.983 36.8741ZM16.7143 53.5745C16.7128 54.6604 16.2808 55.7015 15.5131 56.4694C14.7453 57.2374 13.7044 57.6697 12.6185 57.6715C11.5323 57.67 10.4911 57.2378 9.72312 56.4698C8.95511 55.7018 8.52298 54.6606 8.52148 53.5745C8.52134 53.0365 8.62721 52.5037 8.83307 52.0066C9.03892 51.5096 9.34072 51.0579 9.7212 50.6775C10.1017 50.2972 10.5534 49.9955 11.0505 49.7898C11.5477 49.5841 12.0805 49.4783 12.6185 49.4786C13.1564 49.4785 13.6891 49.5843 14.1861 49.7901C14.6831 49.9959 15.1346 50.2976 15.515 50.6779C15.8954 51.0583 16.1971 51.5099 16.4028 52.0069C16.6086 52.5039 16.7145 53.0366 16.7143 53.5745ZM16.7143 24.89C16.7125 25.9757 16.2804 27.0164 15.5127 27.7842C14.745 28.5519 13.7042 28.984 12.6185 28.9858C11.5323 28.9843 10.4911 28.5522 9.72312 27.7842C8.95511 27.0162 8.52298 25.9749 8.52148 24.8888C8.52134 24.3508 8.62721 23.818 8.83307 23.321C9.03892 22.8239 9.34072 22.3723 9.7212 21.9919C10.1017 21.6115 10.5534 21.3098 11.0505 21.1041C11.5477 20.8984 12.0805 20.7927 12.6185 20.793C13.1565 20.7928 13.6892 20.8987 14.1863 21.1046C14.6834 21.3104 15.135 21.6122 15.5154 21.9927C15.8958 22.3732 16.1974 22.8249 16.4032 23.322C16.6089 23.8191 16.7146 24.3519 16.7143 24.89Z" fill="#F2D040"/>
<path d="M12.1065 3.33204C11.0619 3.33233 10.0277 3.53846 9.06282 3.93864C8.09796 4.33883 7.22141 4.92522 6.48327 5.6643C5.74513 6.40339 5.15986 7.28069 4.76092 8.24607C4.36197 9.21144 4.15717 10.246 4.15821 11.2905C4.15821 14.6109 8.69443 21.2324 10.9167 24.2788C11.053 24.4682 11.2324 24.6224 11.4401 24.7288C11.6477 24.8351 11.8777 24.8906 12.111 24.8906C12.3444 24.8906 12.5743 24.8351 12.782 24.7288C12.9897 24.6224 13.169 24.4682 13.3054 24.2788C15.5276 21.2335 20.0741 14.6109 20.0741 11.2905C20.0739 10.2447 19.8677 9.20912 19.4671 8.24303C19.0665 7.27693 18.4795 6.39925 17.7395 5.66015C16.9996 4.92105 16.1212 4.33501 15.1547 3.93554C14.1881 3.53607 13.1524 3.33099 12.1065 3.33204Z" fill="#E24740"/>
<path d="M12.1076 15.3142C11.5793 15.314 11.0563 15.2097 10.5684 15.0073C10.0805 14.8048 9.6373 14.5082 9.26415 14.1343C8.89099 13.7604 8.5952 13.3166 8.39371 12.8283C8.19221 12.34 8.08896 11.8168 8.08985 11.2885C8.08895 10.2218 8.51167 9.19845 9.26507 8.44335C10.0185 7.68824 11.0409 7.26322 12.1076 7.26172C13.1763 7.26142 14.2014 7.68535 14.9577 8.44039C15.714 9.19544 16.1397 10.2198 16.1412 11.2885C16.141 11.8178 16.0365 12.3419 15.8337 12.8307C15.6308 13.3196 15.3336 13.7637 14.9589 14.1376C14.5843 14.5114 14.1397 14.8078 13.6504 15.0097C13.1611 15.2116 12.6369 15.3151 12.1076 15.3142Z" fill="white"/>
<path d="M12.1094 3.32812C12.0143 3.32812 11.9192 3.32812 11.8241 3.33718C13.8613 3.44219 15.7804 4.3252 17.1855 5.80398C18.5905 7.28277 19.3743 9.2445 19.3751 11.2844C19.3751 14.6002 14.8321 21.233 12.6087 24.2806C12.4052 24.5647 12.1027 24.7622 11.7607 24.8342C12.0441 24.9073 12.3429 24.8935 12.6182 24.7946C12.8936 24.6957 13.1329 24.5162 13.3049 24.2794C15.5283 21.233 20.0724 14.6002 20.0724 11.2832C20.0724 6.89077 16.5019 3.32812 12.1094 3.32812Z" fill="#C63936"/>
<path d="M13.5969 3.47235C12.4471 3.25348 11.2632 3.29104 10.1296 3.58233C8.99597 3.87362 7.9406 4.41147 7.03874 5.15752C6.13689 5.90357 5.41077 6.83944 4.91217 7.89838C4.41358 8.95731 4.15481 10.1132 4.1543 11.2837C4.1543 14.6007 8.69845 21.2335 10.9139 24.2731C11.5083 25.0882 12.7105 25.0882 13.3049 24.281C13.4 24.1542 13.4951 24.0195 13.5969 23.8769C11.3022 20.6867 7.13166 14.4659 7.13166 11.2837C7.13197 9.43259 7.778 7.63959 8.95839 6.2137C10.1388 4.7878 11.7796 3.81832 13.5981 3.47235H13.5969Z" fill="#ED7573"/>
<path d="M47.8781 15.9258C46.8335 15.9259 45.7991 16.132 44.8341 16.5321C43.8691 16.9322 42.9924 17.5186 42.2542 18.2577C41.5159 18.9968 40.9305 19.8741 40.5315 20.8396C40.1325 21.805 39.9277 22.8396 39.9287 23.8843C39.9287 27.2047 44.4661 33.8273 46.6895 36.8726C46.8259 37.0615 47.0051 37.2153 47.2126 37.3214C47.42 37.4275 47.6497 37.4828 47.8827 37.4828C48.1157 37.4828 48.3453 37.4275 48.5528 37.3214C48.7602 37.2153 48.9395 37.0615 49.0759 36.8726C51.2993 33.8273 55.8457 27.2047 55.8457 23.8843C55.8455 22.8384 55.6393 21.8029 55.2387 20.8368C54.8382 19.8707 54.2511 18.993 53.5112 18.2539C52.7712 17.5148 51.8929 16.9288 50.9263 16.5293C49.9598 16.1298 48.924 15.9247 47.8781 15.9258Z" fill="#4DB485"/>
<path d="M47.8792 27.9107C47.3509 27.9107 46.8277 27.8065 46.3397 27.6041C45.8517 27.4017 45.4083 27.1051 45.0351 26.7312C44.6618 26.3573 44.3659 25.9135 44.1643 25.4251C43.9628 24.9367 43.8595 24.4134 43.8604 23.885C43.8598 22.8184 44.2828 21.7951 45.0364 21.0402C45.79 20.2853 46.8125 19.8606 47.8792 19.8594C48.9477 19.8591 49.9727 20.2829 50.7289 21.0377C51.4852 21.7924 51.911 22.8165 51.9128 23.885C51.9127 24.4143 51.8082 24.9384 51.6053 25.4272C51.4025 25.9161 51.1052 26.3602 50.7306 26.7341C50.356 27.108 49.9113 27.4043 49.422 27.6062C48.9328 27.8081 48.4085 27.9116 47.8792 27.9107Z" fill="white"/>
<path d="M47.8809 15.9297C47.7858 15.9297 47.6907 15.9297 47.5956 15.9376C49.6328 16.0426 51.5519 16.9256 52.9569 18.4044C54.362 19.8832 55.1458 21.8449 55.1466 23.8848C55.1466 27.2006 50.6035 33.8335 48.379 36.881C48.176 37.1653 47.8739 37.3632 47.5322 37.4357C47.8156 37.5089 48.1143 37.4951 48.3897 37.3962C48.6651 37.2972 48.9044 37.1177 49.0764 36.881C51.2998 33.8335 55.8428 27.2006 55.8428 23.8848C55.8428 19.4923 52.2734 15.9297 47.8809 15.9297Z" fill="#1EA473"/>
<path d="M49.3694 16.07C48.2196 15.8511 47.0357 15.8887 45.9021 16.18C44.7684 16.4713 43.7131 17.0091 42.8112 17.7552C41.9093 18.5012 41.1832 19.4371 40.6846 20.496C40.186 21.555 39.9273 22.7109 39.9268 23.8813C39.9268 27.1983 44.4686 33.8311 46.6852 36.8708C47.2785 37.6859 48.4819 37.6859 49.0762 36.8787C49.1702 36.7519 49.2652 36.6172 49.3683 36.4745C47.0736 33.2855 42.9019 27.0636 42.9019 23.8825C42.9019 22.0312 43.5478 20.2379 44.7282 18.8118C45.9086 17.3857 47.5507 16.416 49.3694 16.07Z" fill="#79C19D"/>
<path d="M12.6106 32.0168C11.5659 32.0169 10.5315 32.2229 9.56654 32.623C8.60154 33.0232 7.72486 33.6095 6.9866 34.3486C6.24834 35.0877 5.66297 35.9651 5.26395 36.9305C4.86494 37.896 4.6601 38.9306 4.66114 39.9753C4.66114 43.2945 9.19849 49.9171 11.4208 52.9636C11.5571 53.1529 11.7365 53.3071 11.9441 53.4135C12.1518 53.5199 12.3818 53.5753 12.6151 53.5753C12.8484 53.5753 13.0784 53.5199 13.2861 53.4135C13.4937 53.3071 13.6731 53.1529 13.8094 52.9636C16.0317 49.9183 20.577 43.2956 20.577 39.9741C20.5768 38.9284 20.3706 37.8929 19.9701 36.9269C19.5696 35.9609 18.9827 35.0832 18.2429 34.3441C17.503 33.6051 16.6248 33.019 15.6584 32.6195C14.692 32.2199 13.6563 32.0147 12.6106 32.0156V32.0168Z" fill="#77C0ED"/>
<path d="M12.6116 44.0017C12.0832 44.0017 11.56 43.8975 11.0719 43.695C10.5838 43.4925 10.1404 43.1958 9.76707 42.8218C9.39378 42.4477 9.09792 42.0038 8.89642 41.5153C8.69492 41.0268 8.59174 40.5033 8.59278 39.9749C8.59218 38.9082 9.01519 37.8849 9.76881 37.13C10.5224 36.3752 11.545 35.9504 12.6116 35.9492C13.6801 35.9489 14.7051 36.3727 15.4614 37.1275C16.2176 37.8823 16.6434 38.9064 16.6452 39.9749C16.6452 40.5044 16.5408 41.0286 16.338 41.5177C16.1351 42.0068 15.8378 42.451 15.463 42.8251C15.0883 43.1991 14.6434 43.4955 14.1539 43.6974C13.6645 43.8993 13.14 44.0027 12.6105 44.0017H12.6116Z" fill="white"/>
<path d="M12.6133 32.0156C12.5182 32.0156 12.4231 32.0156 12.328 32.0235C14.3652 32.1286 16.2843 33.0116 17.6894 34.4904C19.0944 35.9691 19.8782 37.9309 19.879 39.9707C19.879 43.2866 15.336 49.9194 13.1114 52.9669C12.9083 53.2508 12.6062 53.4483 12.2646 53.5205C12.5478 53.5934 12.8464 53.5795 13.1215 53.4806C13.3967 53.3817 13.6357 53.2023 13.8077 52.9658C16.0322 49.9194 20.5752 43.2866 20.5752 39.9696C20.5752 35.5771 17.0058 32.0156 12.6133 32.0156Z" fill="#61B3E5"/>
<path d="M14.1008 32.1598C12.951 31.941 11.7671 31.9785 10.6335 32.2698C9.49988 32.5611 8.44451 33.099 7.54265 33.845C6.64079 34.5911 5.91467 35.5269 5.41608 36.5859C4.91749 37.6448 4.65871 38.8007 4.6582 39.9712C4.6582 43.2882 9.20122 49.9221 11.4167 52.9606C12.011 53.7757 13.2144 53.7757 13.8076 52.9685C13.9027 52.8429 13.9978 52.7082 14.1008 52.5655C11.805 49.3753 7.63443 43.1546 7.63443 39.9723C7.63475 38.1212 8.28077 36.3282 9.46117 34.9023C10.6416 33.4764 12.2824 32.5058 14.1008 32.1598Z" fill="#99DDFF"/>
</svg>
