<svg width="160" height="160" viewBox="0 0 160 160" fill="none" xmlns="http://www.w3.org/2000/svg">
<path d="M80 140C113.137 140 140 113.137 140 80C140 46.8629 113.137 20 80 20C46.8629 20 20 46.8629 20 80C20 113.137 46.8629 140 80 140Z" fill="#FFE2CD"/>
<path d="M88.68 129.41L140.53 113.6C141.9 113.18 142.82 112.03 142.82 110.74V71.4199C142.82 70.5299 142.38 69.68 141.61 69.11L91.5 31.5C89.59 30.09 86.7 31.84 86.7 34.06V126.71C86.7 128.51 85.18 127.6 88.67 129.41H88.68Z" fill="white"/>
<path d="M114.22 81.26V41.16C114.22 37.73 111.38 34.91 107.68 34.45C108.03 34.41 108.38 34.38 108.74 34.38C112.93 34.38 116.34 37.42 116.34 41.17V81.27C116.34 85.02 112.94 88.06 108.74 88.06C108.38 88.06 108.03 88.03 107.68 87.99C111.37 87.53 114.22 84.7 114.22 81.28V81.26Z" fill="#551615"/>
<path d="M102.75 48.21H95.6899" stroke="#551615" stroke-width="0.65" stroke-miterlimit="10"/>
<path d="M102.75 73.63H95.6899" stroke="#551615" stroke-width="0.65" stroke-miterlimit="10"/>
<path d="M106.03 88.05H107.2C111.072 88.05 114.21 84.9116 114.21 81.04V41.39C114.21 37.5185 111.072 34.38 107.2 34.38H106.03C102.158 34.38 99.02 37.5185 99.02 41.39V81.04C99.02 84.9116 102.158 88.05 106.03 88.05Z" fill="#FC790D"/>
<path d="M86.89 104.5V126.63C86.89 128.43 85.28 127.86 88.77 129.68L140.71 113.53C142.08 113.11 143 111.96 143 110.67V97.73L86.89 104.5Z" fill="#551615"/>
<path d="M28.2201 126.08L85.4101 129.98C90.9001 130.37 95.6001 126.5 95.6001 121.58V38.43C95.6001 33.22 90.3701 29.26 84.6301 30.11L26.4401 38.94C21.8901 39.61 19.54 43.13 19.54 47.26V117.67C19.54 122.07 23.3201 125.72 28.2201 126.07V126.08Z" fill="#C22126"/>
<path d="M36.77 94.98H31.1299C30.8999 94.98 30.71 94.79 30.71 94.56V87.76C30.71 86.12 32.0399 84.78 33.6899 84.78H34.67C36.06 84.78 37.2 85.91 37.2 87.31V94.57C37.2 94.8 37.01 94.99 36.78 94.99L36.77 94.98Z" fill="#551615"/>
<path d="M31.2501 76.88L36.8201 76.65C37.0701 76.65 37.2801 76.47 37.2801 76.26V68.44C37.2801 66.91 35.8401 66.17 34.0701 66.17H34.0001C32.2301 66.17 30.79 67.41 30.79 68.94V76.49C30.79 76.71 30.9901 76.88 31.2501 76.88Z" fill="#551615"/>
<path d="M31.2501 58.49L36.8201 57.98C37.0701 57.98 37.2801 57.8 37.2801 57.59V49.54C37.2801 48.01 35.8401 47.25 34.0701 47.25H34.0001C32.2301 47.25 30.79 48.49 30.79 50.02V58.1C30.79 58.32 30.9901 58.49 31.2501 58.49Z" fill="#551615"/>
<path d="M55.4601 95.03H49.4201C49.1701 95.03 48.9702 94.83 48.9702 94.58V87.29C48.9702 85.53 50.4002 84.1 52.1602 84.1H52.7202C54.4802 84.1 55.9102 85.53 55.9102 87.29V94.58C55.9102 94.83 55.7101 95.03 55.4601 95.03Z" fill="#551615"/>
<path d="M49.55 76.01L55.5201 75.78C55.7901 75.78 56.0101 75.59 56.0101 75.36V66.98C56.0101 65.34 54.4701 64.55 52.5801 64.55H52.5001C50.6001 64.55 49.0701 65.88 49.0701 67.51V75.59C49.0701 75.82 49.2901 76.01 49.5601 76.01H49.55Z" fill="#551615"/>
<path d="M49.55 56.69L55.5201 56.17C55.7901 56.17 56.0101 55.98 56.0101 55.75V47.11C56.0101 45.47 54.4701 44.66 52.5801 44.66H52.5001C50.6001 44.66 49.0701 45.99 49.0701 47.62V56.27C49.0701 56.5 49.2901 56.69 49.5601 56.69H49.55Z" fill="#551615"/>
<path d="M76.7 94.87H70.3699C70.1099 94.87 69.8999 94.66 69.8999 94.4V86.76C69.8999 84.91 71.3999 83.41 73.2499 83.41H73.8399C75.6899 83.41 77.1899 84.91 77.1899 86.76V94.4C77.1899 94.66 76.9799 94.87 76.7199 94.87H76.7Z" fill="#551615"/>
<path d="M70.5 74.7199L76.76 74.4899C77.04 74.4899 77.27 74.2899 77.27 74.0499V65.2399C77.27 63.5199 75.66 62.6899 73.67 62.6899H73.59C71.6 62.6899 69.99 64.0799 69.99 65.7999V74.2799C69.99 74.5199 70.22 74.7199 70.5 74.7199Z" fill="#551615"/>
<path d="M70.5 54.17L76.76 53.6101C77.04 53.6101 77.27 53.41 77.27 53.17V44.12C77.27 42.4 75.66 41.55 73.67 41.55H73.59C71.6 41.55 69.99 42.94 69.99 44.66V53.73C69.99 53.97 70.22 54.17 70.5 54.17Z" fill="#551615"/>
<path d="M52.03 111.77C46.65 111.66 42.23 115.53 42.23 120.34V127.01L61.43 128.37V120.33C61.41 115.67 57.24 111.88 52.04 111.77H52.03Z" fill="#551615"/>
<path d="M52.1399 127.7L51.6299 127.66V110.36H52.1399V127.7Z" fill="#C22126"/>
<path d="M97.16 103.07H18.49C17.6671 103.07 17 103.737 17 104.56V104.6C17 105.423 17.6671 106.09 18.49 106.09H97.16C97.9829 106.09 98.65 105.423 98.65 104.6V104.56C98.65 103.737 97.9829 103.07 97.16 103.07Z" fill="#551615"/>
</svg>
