<svg width="60" height="61" viewBox="0 0 60 61" fill="none" xmlns="http://www.w3.org/2000/svg">
<path d="M28.8774 11.8555C18.6965 11.8555 10.4385 20.2553 10.4385 30.6091C10.4385 40.963 18.6967 49.3374 28.8774 49.3374C39.0581 49.3374 47.2916 40.963 47.2916 30.6091C47.2916 20.2553 39.0335 11.8555 28.8774 11.8555Z" fill="#AD6918"/>
<path d="M34.8427 12.7178C27.1516 9.95163 18.9181 12.6925 14.1359 18.8845C13.2484 20.2296 12.4843 21.7268 11.942 23.3256C8.63884 33.0958 13.6183 43.7797 23.1089 47.2056C32.5996 50.6314 42.9777 45.4799 46.3056 35.7097C46.8478 34.0855 47.1684 32.4614 47.2916 30.8374C47.2916 22.9197 42.5092 15.4842 34.8427 12.718V12.7178Z" fill="url(#paint0_linear_2207_57360)"/>
<path d="M41.5969 33.4493C40.0684 39.3876 35.0644 43.4479 29.4193 43.8794C28.2607 43.9047 27.0775 43.7524 25.8943 43.4226C18.7454 41.4939 14.4809 33.9568 16.379 26.5976C18.2524 19.2635 25.5739 14.8733 32.6979 16.802C33.8811 17.1318 34.9905 17.5886 36.0011 18.1977C40.6848 21.4461 43.1007 27.4858 41.5969 33.4495V33.4493Z" fill="url(#paint1_linear_2207_57360)"/>
<path d="M28.9755 17.1602C23.2564 17.1602 18.4001 20.9414 16.6254 26.1945C16.3296 27.2858 16.1816 28.453 16.1816 29.6712C16.1816 36.929 21.9007 42.8166 28.9755 42.8166C36.0503 42.8166 41.7694 36.929 41.7694 29.6712C41.7694 28.4531 41.5968 27.2858 41.3256 26.1945C39.5507 20.9414 34.6944 17.1602 28.9755 17.1602Z" fill="#FFE312"/>
<path d="M33.265 22.9712C33.8567 22.9712 34.3251 23.4533 34.3251 24.0369C34.3251 24.6461 33.8567 25.1027 33.265 25.1027H30.8739C31.3423 25.7879 31.6875 26.5745 31.8107 27.4121H33.265C33.8319 27.4121 34.3003 27.8942 34.3003 28.5034C34.3003 29.087 33.8319 29.5691 33.265 29.5691H31.712C31.4901 30.4828 30.9971 31.3201 30.3808 31.98C29.444 32.9443 28.1621 33.5279 26.757 33.5279H26.7077L31.9585 38.9079C32.3529 39.3394 32.3529 39.9992 31.9585 40.4305C31.5394 40.8366 30.8738 40.8366 30.4795 40.4305L29.6907 39.593C29.6414 39.5676 29.6168 39.5422 29.5922 39.5169L23.4541 33.198C23.0597 32.792 23.0597 32.1067 23.4541 31.6755C23.6021 31.5231 23.7992 31.4217 23.9964 31.3964H24.0457C24.1442 31.371 24.2429 31.371 24.3414 31.3964H26.7572C27.5954 31.3964 28.3349 31.0412 28.9018 30.4574C29.1483 30.2036 29.3701 29.8992 29.5181 29.5691H24.1935C23.6266 29.5691 23.1582 29.087 23.1582 28.5034C23.1582 27.8942 23.6266 27.4121 24.1935 27.4121H29.6907C29.5427 26.8792 29.2716 26.397 28.9019 26.0163C28.4089 25.5088 27.7433 25.1788 27.0038 25.1027H23.9964C23.528 25.0013 23.1582 24.5698 23.1582 24.0369C23.1582 23.5294 23.528 23.098 23.9964 22.9965C27.1024 22.9458 30.1839 22.9712 33.2652 22.9712H33.265Z" fill="#FFBD0A"/>
<path d="M33.4869 22.2837C34.0538 22.2837 34.5222 22.7658 34.5222 23.3494C34.5222 23.933 34.0538 24.4152 33.4869 24.4152H31.0712C31.5642 25.1004 31.8848 25.887 32.0079 26.7246H33.4623C34.054 26.7246 34.4976 27.2067 34.4976 27.8159C34.4976 28.3995 34.0538 28.8816 33.4623 28.8816H31.9092C31.6874 29.7953 31.219 30.6326 30.578 31.2925C29.6413 32.2314 28.3593 32.8404 26.9542 32.8404H26.9296L32.1557 38.2204C32.5502 38.6265 32.5502 39.3117 32.1557 39.743C31.7366 40.1491 31.0956 40.1491 30.6767 39.743L29.888 38.9054C29.8633 38.8801 29.8141 38.8547 29.7894 38.8294L23.6514 32.5105C23.2569 32.1044 23.2569 31.4192 23.6514 30.988C23.7994 30.8356 23.9964 30.7342 24.1937 30.7089H24.2429C24.3415 30.6835 24.4402 30.6835 24.5387 30.7089H26.9544C27.7926 30.7089 28.5568 30.3537 29.099 29.7699C29.3455 29.5161 29.5674 29.2117 29.7154 28.8816H24.3907C23.8238 28.8816 23.3555 28.3995 23.3555 27.8159C23.3555 27.2067 23.8238 26.7246 24.3907 26.7246H29.888C29.74 26.1917 29.4689 25.7095 29.0992 25.3288C28.6062 24.8213 27.9406 24.4913 27.2011 24.4152H24.1937C23.7253 24.3138 23.3555 23.8823 23.3555 23.3494C23.3555 22.8419 23.7253 22.4105 24.1937 22.309C27.2996 22.2583 30.3812 22.2837 33.4871 22.2837H33.4869Z" fill="#0B191C"/>
<path d="M59.8165 18.257C59.6592 18.1024 59.441 18.0496 59.2333 18.1162L58.8239 18.2473L56.2891 19.0502C56.179 19.085 56.0593 19.0262 56.0167 18.9163L56.015 18.9119C55.9393 18.73 55.8386 18.5225 55.7408 18.3213C55.5171 17.8147 55.2583 17.2735 54.9496 16.667C54.7482 16.2522 54.5384 15.8611 54.3164 15.4471C54.2393 15.3034 54.162 15.159 54.0846 15.013L54.0827 15.0097C54.032 14.9183 53.9811 14.8332 53.9318 14.7509C53.887 14.6758 53.8405 14.598 53.7954 14.5174C53.7868 14.502 53.7774 14.4869 53.7673 14.4719C53.6987 14.372 53.6375 14.2714 53.5782 14.1739C53.5379 14.1077 53.4999 14.0452 53.4607 13.9847C50.8689 9.85677 47.2401 6.43034 42.9668 4.07554C38.7016 1.71165 33.9148 0.475209 29.1242 0.500377C29.0426 0.500377 28.9635 0.507189 28.8871 0.513812C28.815 0.520057 28.7468 0.525923 28.6805 0.525923H28.2292C26.2998 0.60786 24.3758 0.880544 22.5103 1.33678C20.6848 1.78318 18.8944 2.4103 17.1886 3.20091C15.5063 3.98054 13.8892 4.9267 12.3829 6.01308C10.8838 7.09417 9.48038 8.32399 8.21186 9.66791C2.96405 15.2031 0.0477925 22.5408 0 30.3302C0 33.5747 0.492447 36.7538 1.46355 39.7787C1.94626 41.2948 2.55653 42.7888 3.27765 44.2194C4.00189 45.6561 4.84377 47.0405 5.77958 48.3335C7.17549 50.2873 8.79566 52.0606 10.5952 53.6036C12.3658 55.122 14.3179 56.4249 16.3976 57.4761C18.4676 58.5159 20.6524 59.2999 22.8911 59.8065C24.9275 60.2672 27.016 60.4998 29.1106 60.4998C29.3632 60.4998 29.6159 60.4964 29.8687 60.4896C32.6204 60.4124 35.3409 59.9484 37.9546 59.1107L37.9566 59.1101C40.5628 58.2413 43.0572 57.0219 45.3703 55.4855L45.376 55.4816C45.5455 55.3595 45.6885 55.2636 45.8148 55.1788C45.8692 55.1423 45.919 55.109 45.9643 55.0779L45.9692 55.0745C46.144 54.946 46.3451 54.7907 46.5398 54.6404C46.6363 54.5661 46.8368 54.4111 47.0598 54.2326L47.0666 54.227C47.2341 54.0792 47.4302 53.9276 47.6034 53.794C47.6227 53.7792 47.6412 53.7628 47.6602 53.744C47.7223 53.6825 47.7991 53.6182 47.8883 53.5436C47.96 53.4837 48.0412 53.4157 48.1263 53.3391C48.2745 53.2121 48.4274 53.0806 48.5561 52.9481C48.5695 52.9343 48.5997 52.9054 48.6344 52.8717C48.9842 52.5345 49.3197 52.1904 49.4239 51.9477C49.4612 51.8937 49.4698 51.8396 49.4719 51.8023C49.4814 51.7777 49.4945 51.7391 49.4967 51.688C49.518 51.5283 49.5288 51.2948 49.4667 51.0668C49.3862 50.7116 49.2004 50.3759 48.9291 50.0955C48.6723 49.8035 48.3184 49.5938 47.9815 49.5346C47.9754 49.5334 47.9692 49.5321 47.9629 49.5304C47.7649 49.4761 47.5642 49.4778 47.3664 49.5357C46.951 49.6502 46.6486 49.9352 46.3979 50.1933L46.2951 50.2991C46.2876 50.3068 46.2797 50.3138 46.2712 50.3204L46.1957 50.3787L46.1883 50.3848C46.0495 50.5038 45.9161 50.623 45.7869 50.7383C45.6371 50.8719 45.4957 50.9981 45.3531 51.1183C44.9908 51.4114 44.686 51.6517 44.3772 51.8718L44.3741 51.874C42.3907 53.3501 40.1584 54.5541 37.7395 55.4528C35.3775 56.2973 32.9485 56.789 30.5185 56.9141C30.1091 56.9388 29.6858 56.9644 29.272 56.9644C28.9047 56.9644 28.5134 56.9419 28.0989 56.9182L28.0241 56.9139C26.1098 56.8141 24.1961 56.4898 22.3364 55.9501C20.496 55.4159 18.7119 54.672 17.0329 53.7384C15.3408 52.8109 13.7389 51.6824 12.2716 50.3835C10.8064 49.0865 9.47615 47.6207 8.3181 46.027C6.68066 43.7626 5.4375 41.288 4.62301 38.6709C3.78664 36.0374 3.37507 33.2829 3.39952 30.4848C3.44731 26.8928 4.14435 23.4395 5.47096 20.2212C6.74757 17.1248 8.56221 14.3463 10.8645 11.9633C12.0193 10.7683 13.2905 9.68135 14.6433 8.73273C16.0041 7.77843 17.4606 6.9547 18.9727 6.28426C22.0993 4.89794 25.4324 4.16353 28.879 4.10146H29.5667C31.494 4.11395 33.4268 4.35655 35.3117 4.82263C37.1791 5.28435 39.0011 5.96578 40.7273 6.84798C42.4228 7.70804 44.0156 8.76414 45.4619 9.98715C46.9324 11.2308 48.2535 12.6489 49.3882 14.2021L49.3901 14.2046C49.5597 14.4292 49.7338 14.6852 49.9022 14.9329L49.9077 14.9405C50.0112 15.0775 50.1059 15.2245 50.2058 15.3801C50.2658 15.4732 50.3277 15.5695 50.3933 15.666C50.636 16.0503 50.9922 16.6277 51.2894 17.2103C51.2951 17.2217 51.3014 17.2328 51.308 17.2438C51.5674 17.6762 51.7966 18.1304 52.0181 18.5694C52.0648 18.6621 52.1113 18.7543 52.158 18.8457L52.1595 18.8485C52.255 19.0288 52.3401 19.2094 52.4302 19.4005C52.476 19.4974 52.5232 19.5975 52.573 19.7004C52.6017 19.7689 52.637 19.8439 52.6734 19.9209C52.7023 19.982 52.7037 20.0499 52.6776 20.1124C52.6514 20.175 52.6021 20.2204 52.5389 20.2405L49.9502 21.0638L49.5487 21.1897C49.3391 21.2553 49.1831 21.4336 49.141 21.6548C49.0991 21.876 49.1785 22.1018 49.3487 22.2437L49.6645 22.5073L56.2933 28.266L56.5685 28.5126C56.7225 28.6507 56.9314 28.6969 57.1269 28.6362C57.3225 28.5754 57.4716 28.4182 57.5258 28.2153L57.6256 27.8416L59.8693 19.2879L59.9801 18.8502C60.0351 18.6333 59.9739 18.4116 59.8165 18.257Z" fill="#E35D5B"/>
<defs>
<linearGradient id="paint0_linear_2207_57360" x1="42.6338" y1="43.7191" x2="-19.6587" y2="-15.5841" gradientUnits="userSpaceOnUse">
<stop offset="0.04" stop-color="#FFA305"/>
<stop offset="0.54" stop-color="#FFFF17"/>
<stop offset="1" stop-color="#FFD900"/>
</linearGradient>
<linearGradient id="paint1_linear_2207_57360" x1="28.0652" y1="19.4177" x2="30.0343" y2="40.7995" gradientUnits="userSpaceOnUse">
<stop stop-color="#FFA305"/>
<stop offset="1" stop-color="#FFFC5E"/>
</linearGradient>
</defs>
</svg>
