<svg width="160" height="160" viewBox="0 0 160 160" fill="none" xmlns="http://www.w3.org/2000/svg">
<path d="M79.438 140C112.578 140 139.438 113.14 139.438 80C139.438 46.86 112.568 20 79.438 20C46.308 20 19.438 46.86 19.438 80C19.438 113.14 46.298 140 79.438 140Z" fill="#FFE2CD"/>
<path d="M142.058 89.12C142.478 89.54 142.708 90.11 142.708 90.7V98.6L96.728 109.03L95.448 119.24L91.228 124.62L79.718 124.36L82.568 93.12L86.608 73.82L89.868 40.75C90.038 39.02 97.568 38.25 99.068 39.13L111.938 50.63C114.578 52.64 114.088 54.2 114.088 57.02L142.058 89.11V89.12Z" fill="white"/>
<path d="M83.238 93.3L142.818 96.69L82.688 98.35L83.238 93.3Z" fill="#FC790D"/>
<path d="M93.358 49.3101L142.288 89.5101C142.588 89.7401 142.758 90.1001 142.758 90.4701V91.0601L91.928 61.3001L93.358 49.3101Z" fill="#FC790D"/>
<path d="M142.708 98.1799V106.4C142.708 106.98 142.338 107.49 141.788 107.68L82.148 130C80.858 130.43 75.808 128.65 76.068 127.31L80.958 102.83L142.698 98.1899H142.708V98.1799Z" fill="#C22126"/>
<path d="M121.018 82.38L120.418 91.42C120.388 92.52 119.488 93.36 118.448 93.29L98.058 91.32C97.058 91.25 96.298 90.37 96.328 89.32L99.448 72.97C99.488 71.72 100.628 70.84 101.778 71.16L119.648 80.44C120.508 80.83 121.048 81.48 121.018 82.38Z" fill="#551615"/>
<path d="M136.708 89.8301L136.558 94.0001C136.538 94.5801 136.068 95.0301 135.508 94.9901L122.758 93.6901C122.228 93.6501 121.818 93.1801 121.838 92.6301L122.518 83.4401C122.538 82.7801 123.138 82.3101 123.758 82.4801L135.978 88.8001C136.418 88.9201 136.718 89.3501 136.708 89.8301Z" fill="#551615"/>
<path d="M89.198 91.6899L87.868 121.77C87.868 126.61 83.898 130.5 79.078 130.4L27.078 129.39C23.008 129.3 19.558 126.37 18.798 122.36L16.988 98.0399C16.598 95.9499 16.768 92.0199 18.888 92.0099L89.198 91.6899Z" fill="#551615"/>
<path d="M81.9379 98.3901C85.7579 98.3701 88.3579 95.7101 89.1979 91.9701L101.388 43.4401C102.038 40.8001 99.3179 38.2701 96.6079 38.4001L35.3579 41.1101C32.9879 41.2501 29.6679 42.6701 28.9479 46.3601L17.4279 92.5801C16.4679 95.6201 18.7479 98.7101 21.9279 98.6901L81.9379 98.3801V98.3901Z" fill="#C22126"/>
<path d="M51.2979 86.53H57.2579C59.6479 86.53 61.6979 84.51 61.8279 82.01C61.9579 79.51 60.1279 77.49 57.7279 77.49H51.7679C49.3779 77.49 47.3279 79.51 47.1979 82.01C47.0679 84.51 48.8979 86.53 51.2979 86.53Z" fill="#C22126"/>
<path d="M52.3779 85.21H56.3279C58.2179 85.21 59.8179 83.86 59.9179 81.89C60.0179 79.92 58.5479 78.81 56.6679 78.8H52.7179C50.8279 78.8 49.2479 79.9201 49.1379 81.8801C49.0379 83.8501 50.4879 85.2 52.3779 85.2V85.21Z" fill="#551615"/>
<path d="M59.668 83.23C60.388 81.8 59.8881 80.11 58.5581 79.43C57.2281 78.76 55.568 79.37 54.848 80.79C54.128 82.21 54.628 83.91 55.958 84.59C57.288 85.26 58.948 84.65 59.668 83.23Z" fill="white"/>
<path d="M52.358 85.2201C50.468 85.2201 49.018 83.8601 49.118 81.9001C49.218 79.9301 50.808 78.8201 52.688 78.8201H52.008C50.118 78.8201 48.538 79.9401 48.428 81.9001C48.328 83.8701 49.778 85.2201 51.668 85.2201H55.618H52.348H52.358Z" fill="#551615"/>
<path d="M54.1981 83.23C54.9181 81.8 54.4181 80.11 53.0881 79.43C51.7581 78.76 50.0981 79.37 49.3781 80.79C48.6581 82.22 49.1581 83.91 50.4881 84.59C51.8181 85.26 53.4781 84.65 54.1981 83.23Z" fill="white"/>
<path d="M31.948 76.9399H27.178L26.988 86.7699H30.658L31.948 76.9399Z" fill="#551615"/>
<path d="M29.088 81.37C29.848 81.37 30.468 80.73 30.468 79.93C30.468 79.13 29.848 78.49 29.088 78.49C28.328 78.49 27.708 79.13 27.708 79.93C27.708 80.73 28.328 81.37 29.088 81.37Z" fill="#FDFBF0"/>
<path d="M29.088 85.22C29.848 85.22 30.468 84.58 30.468 83.78C30.468 82.98 29.848 82.34 29.088 82.34C28.328 82.34 27.708 82.98 27.708 83.78C27.708 84.58 28.328 85.22 29.088 85.22Z" fill="#FDFBF0"/>
<path d="M24.748 86.7699L27.178 76.9399L26.988 86.7699H24.748Z" fill="#C22126"/>
<path d="M84.568 76.9399H78.608L78.428 86.7699H82.098L84.568 76.9399Z" fill="#551615"/>
<path d="M80.7179 85.22C81.4779 85.22 82.0979 84.58 82.0979 83.78C82.0979 82.98 81.4779 82.34 80.7179 82.34C79.9579 82.34 79.3379 82.98 79.3379 83.78C79.3379 84.58 79.9579 85.22 80.7179 85.22Z" fill="#FDFBF0"/>
<path d="M75.998 86.7699L78.608 76.9399L78.428 86.7699H75.998Z" fill="#C22126"/>
<path d="M80.7179 81.37C81.4779 81.37 82.0979 80.73 82.0979 79.93C82.0979 79.13 81.4779 78.49 80.7179 78.49C79.9579 78.49 79.3379 79.13 79.3379 79.93C79.3379 80.73 79.9579 81.37 80.7179 81.37Z" fill="#FDFBF0"/>
<path d="M68.818 116.13C72.058 116.13 74.688 113.24 74.688 109.68C74.688 106.12 72.058 103.23 68.818 103.23C65.578 103.23 62.948 106.12 62.948 109.68C62.948 113.24 65.578 116.13 68.818 116.13Z" fill="#FC790D"/>
<path d="M72.6579 115.61C75.9779 115.61 78.6679 112.81 78.6679 109.35C78.6679 105.89 75.9779 103.09 72.6579 103.09C69.3379 103.09 66.6479 105.89 66.6479 109.35C66.6479 112.81 69.3379 115.61 72.6579 115.61Z" fill="#FDFBF0"/>
<path d="M24.4479 116.13C27.6879 116.13 30.3179 113.24 30.3179 109.68C30.3179 106.12 27.6879 103.23 24.4479 103.23C21.2079 103.23 18.5779 106.12 18.5779 109.68C18.5779 113.24 21.2079 116.13 24.4479 116.13Z" fill="#FC790D"/>
<path d="M28.2881 115.61C31.6081 115.61 34.2981 112.81 34.2981 109.35C34.2981 105.89 31.6081 103.09 28.2881 103.09C24.9681 103.09 22.2781 105.89 22.2781 109.35C22.2781 112.81 24.9681 115.61 28.2881 115.61Z" fill="#FDFBF0"/>
<path d="M51.968 68.18H30.268C28.418 68.18 27.068 66.44 27.518 64.64L31.888 47.19C32.328 45.42 33.878 44.15 35.698 44.08L58.018 43.11C59.828 43.03 61.198 44.72 60.758 46.48L56.058 65.01C55.588 66.88 53.908 68.19 51.978 68.19H51.968V68.18Z" fill="#551615"/>
<path d="M83.5879 68.1801H60.8479C58.9079 68.1801 57.4879 66.3601 57.9579 64.4701L62.5279 46.1801C62.9879 44.3301 64.6179 43.0001 66.5179 42.9201L89.9079 41.9001C91.8079 41.8201 93.2379 43.5901 92.7779 45.4301L87.8579 64.8401C87.3579 66.8001 85.5979 68.1701 83.5779 68.1701L83.5879 68.1801Z" fill="#551615"/>
<path d="M143.178 90.68C143.178 90.09 142.948 89.52 142.528 89.1L114.558 57C114.558 54.18 115.048 52.62 112.408 50.61L99.538 39.11C98.088 38.26 91.058 38.95 90.408 40.55C92.328 39.41 97.668 39.01 98.908 39.74L111.778 51.24C114.418 53.25 113.928 54.81 113.928 57.63L142.318 89.32" fill="#C22126"/>
</svg>
